<?xml version="1.0" encoding="utf-8"?>
<!-- Generator: Adobe Illustrator 16.0.0, SVG Export Plug-In . SVG Version: 6.00 Build 0)  -->
<!DOCTYPE svg PUBLIC "-//W3C//DTD SVG 1.1//EN" "http://www.w3.org/Graphics/SVG/1.1/DTD/svg11.dtd">
<svg version="1.1" id="Capa_1" xmlns="http://www.w3.org/2000/svg" xmlns:xlink="http://www.w3.org/1999/xlink" x="0px" y="0px"
	 width="300px" height="123.691px" viewBox="0 0 300 123.691" enable-background="new 0 0 300 123.691" xml:space="preserve">
<rect x="1.025" y="27.48" fill="#FFFFFF" width="297.533" height="94.805"/>
<g>
	<g>
		<path fill="#CCCCCC" d="M245.613,34.112h2.439c0.312-0.59,0.361-1.425-0.37-2.674c0.69-0.992,1.386-1.842,1.923-2.457h-1.604
			c-0.332,0.405-0.688,0.862-1.049,1.359c-0.35-0.492-0.698-0.949-1.026-1.359h-1.591c0.543,0.636,1.215,1.474,1.874,2.435
			C245.439,32.649,245.382,33.499,245.613,34.112z M246.907,32.753c0.103,0.39,0.046,0.663-0.069,0.879
			C246.781,33.403,246.781,33.118,246.907,32.753z"/>
		<path fill="#CCCCCC" d="M292.263,63.057v1.754c0.528-0.549,1.176-1.209,1.874-1.924c1.028-1.043,2.156-2.191,3.188-3.283v-1.745
			c-1.21,1.277-2.726,2.816-4.059,4.172C292.918,62.391,292.583,62.731,292.263,63.057z"/>
		<path fill="#CCCCCC" d="M293.623,47.357c-0.477-0.54-0.939-1.009-1.359-1.418v1.754c0.146,0.153,0.29,0.311,0.436,0.476
			c0.695,0.789,1.828,1.863,2.993,2.971c0.556,0.526,1.116,1.06,1.635,1.561v-1.699c-0.262-0.25-0.525-0.502-0.789-0.752
			C295.383,49.162,294.263,48.1,293.623,47.357z"/>
		<path fill="#CCCCCC" d="M263.214,31.987c-0.266,0.797-0.01,1.528,0.391,2.125h2.01c0.407-0.597,0.665-1.328,0.399-2.125
			c-0.104-0.311-0.332-0.687-0.64-1.109c0.52-0.608,1.167-1.281,1.786-1.896h-1.692c-0.297,0.314-0.589,0.636-0.859,0.947
			c-0.271-0.313-0.562-0.633-0.857-0.947h-1.688c0.618,0.614,1.263,1.287,1.778,1.896C263.534,31.302,263.305,31.677,263.214,31.987
			z M264.369,32.364c0.045-0.138,0.126-0.297,0.239-0.469c0.114,0.171,0.205,0.331,0.252,0.469c0.112,0.377-0.012,0.754-0.252,1.097
			C264.379,33.118,264.243,32.741,264.369,32.364z"/>
		<path fill="#CCCCCC" d="M292.263,43.034v1.584C292.485,44.131,292.515,43.628,292.263,43.034z"/>
		<path fill="#CCCCCC" d="M281.034,34.112h2.426c0.216-0.578,0.175-1.372-0.487-2.491c0.733-1.068,1.482-1.986,2.054-2.64h-1.601
			c-0.373,0.456-0.777,0.975-1.186,1.542c-0.404-0.567-0.807-1.086-1.179-1.542h-1.601c0.568,0.652,1.313,1.57,2.048,2.64
			C280.855,32.74,280.818,33.534,281.034,34.112z M282.241,33.072c0.046,0.193,0.035,0.366,0,0.503
			C282.218,33.438,282.207,33.267,282.241,33.072z"/>
		<path fill="#CCCCCC" d="M292.263,89.354v1.107c0.1-0.158,0.17-0.299,0.194-0.398C292.497,89.887,292.422,89.647,292.263,89.354z"
			/>
		<path fill="#CCCCCC" d="M292.263,112.459v2.178C292.662,113.764,292.492,113.114,292.263,112.459z"/>
		<path fill="#CCCCCC" d="M292.263,65.994v1.65C292.512,67.022,292.488,66.506,292.263,65.994z"/>
		<path fill="#CCCCCC" d="M292.263,40.294v1.646c1.392-1.334,3.472-3.121,5.063-4.459v-1.594
			C295.959,37.03,293.907,38.773,292.263,40.294z"/>
		<path fill="#CCCCCC" d="M254.273,115.889c-1.475,1.346-4.796,3.754-6.738,5.131h2.104c2.017-1.455,4.535-3.334,5.668-4.422
			c0.034-0.035,0.08-0.068,0.114-0.104c0.068,0.066,0.148,0.137,0.218,0.217c1.105,1.057,3.536,2.871,5.526,4.309h2.103
			c-2.01-1.432-5.329-3.842-6.709-5.131H254.273L254.273,115.889z"/>
		<path fill="#CCCCCC" d="M272.66,115.889c-1.372,1.289-4.689,3.699-6.704,5.131h2.102c1.988-1.438,4.416-3.252,5.522-4.309
			c0.056-0.057,0.102-0.104,0.146-0.148l0.035,0.035c1.141,1.086,3.664,2.967,5.677,4.422h2.091
			c-1.94-1.379-5.263-3.783-6.735-5.131H272.66L272.66,115.889z"/>
		<path fill="#CCCCCC" d="M220.041,115.18c1.017-1.395,0.708-2.229,0.377-3.131l-0.012-0.033c-0.035-0.092-0.126-0.229-0.264-0.4
			c1.075-1.063,3.007-2.813,4.801-4.422c0.347-0.316,0.687-0.627,1.017-0.928v-1.654c-0.564,0.514-1.191,1.082-1.839,1.668
			c-1.737,1.576-3.602,3.256-4.778,4.443c-1.166-1.188-3.085-2.924-4.879-4.547c-1.257-1.131-2.434-2.207-3.211-2.938
			c0.021-0.023,0.045-0.045,0.069-0.068c1.051-1.338,1.027-1.783-0.081-3.029l0.081-0.092l0.045-0.045
			c0.377-0.389,1.027-1.053,1.816-1.84c1.862-1.861,4.457-4.469,6.057-6.309c1.6,1.852,4.263,4.514,6.158,6.41
			c0.196,0.199,0.384,0.389,0.562,0.566v-1.73c-1.953-1.957-4.575-4.588-5.942-6.172c0.377-0.48,0.617-0.855,0.676-1.086
			c0.067-0.285-0.173-0.754-0.617-1.35c0.947-0.971,2.456-2.422,3.965-3.896c0.649-0.625,1.302-1.254,1.92-1.861v-1.713
			c-0.833,0.828-1.801,1.766-2.766,2.695v0.012c-1.429,1.371-2.847,2.742-3.852,3.873c-1.017-1.143-2.479-2.561-3.954-3.986
			c-1.622-1.564-3.245-3.133-4.229-4.195c0.399-0.525,0.64-0.961,0.64-1.234c0-0.354-0.239-0.811-0.628-1.336
			c0.96-1.027,2.537-2.41,4.034-3.736c1.143-1.006,2.24-1.979,2.981-2.721c0.412-0.412,0.755-0.777,1.053-1.107
			c0.319,0.365,0.708,0.766,1.153,1.211c0.743,0.742,1.841,1.715,2.983,2.73c0.88,0.773,1.787,1.572,2.583,2.309v-1.65
			c-0.579-0.525-1.181-1.059-1.771-1.582c-1.096-0.971-2.159-1.896-2.926-2.674c-0.514-0.504-0.925-0.949-1.245-1.326
			c0.206-0.287,0.354-0.549,0.457-0.801c0.366-0.902,0.206-1.564-0.308-2.309l-0.011-0.012c0.583-0.627,1.462-1.52,2.434-2.514
			c1.087-1.105,2.291-2.327,3.371-3.471v-1.755c-1.236,1.313-2.837,2.943-4.239,4.368c-0.927,0.95-1.771,1.807-2.377,2.446
			c-0.617-0.65-1.497-1.553-2.479-2.548c-2.104-2.137-4.675-4.754-5.761-6.045c0.218-0.343,0.344-0.605,0.344-0.766
			c0-0.218-0.115-0.491-0.321-0.813c0.73-0.8,2.046-2.057,3.326-3.268c1.152-1.109,2.297-2.184,2.981-2.972
			c0.479-0.549,0.972-1.027,1.405-1.463c0.137-0.137,0.274-0.263,0.4-0.389c0.161,0.16,0.332,0.32,0.502,0.503
			c0.435,0.423,0.927,0.902,1.404,1.451c0.688,0.789,1.83,1.874,2.983,2.971c0.625,0.595,1.259,1.198,1.828,1.752v-1.697
			c-0.324-0.311-0.653-0.624-0.983-0.935c-1.143-1.098-2.262-2.148-2.915-2.892c-0.514-0.595-1.017-1.086-1.462-1.531
			c-0.193-0.184-0.366-0.366-0.537-0.525c0.571-0.731,0.812-1.417,0.422-2.309c-0.067-0.137-0.183-0.31-0.343-0.503
			c1.378-1.399,3.977-3.627,5.817-5.172v-1.593c-1.763,1.469-4.871,4.104-6.617,5.873c-2.365-2.435-7.52-6.64-7.999-7.04
			l-0.035-0.022c0.412-0.582,0.572-1.439-0.183-2.799c0.684-1.01,1.388-1.889,1.953-2.55h-1.597
			c-0.348,0.434-0.719,0.917-1.089,1.439c-0.368-0.522-0.735-1.007-1.083-1.439h-1.591c0.566,0.661,1.271,1.54,1.955,2.55
			c-0.754,1.358-0.595,2.217-0.183,2.799h-0.013l-0.022,0.022c-0.47,0.39-5.382,4.412-7.828,6.857
			c-2.594-2.571-7.726-6.754-7.749-6.776c-0.021-0.012-0.045-0.033-0.068-0.046c0,0-0.24-0.148-0.525-0.377
			c0.457-0.617,0.755-1.394,0.469-2.24c-0.08-0.263-0.273-0.604-0.537-0.971c0.48-0.575,1.087-1.216,1.685-1.816h-1.677
			c-0.265,0.285-0.523,0.574-0.762,0.855c-0.238-0.282-0.498-0.57-0.764-0.855h-1.685c0.597,0.601,1.202,1.241,1.681,1.816
			c-0.25,0.366-0.444,0.708-0.537,0.971c-0.285,0.847,0.023,1.623,0.47,2.24c-0.286,0.229-0.524,0.377-0.524,0.377
			c-0.023,0.013-0.047,0.034-0.07,0.046c-0.021,0.022-5.164,4.218-7.758,6.787c-2.424-2.434-7.304-6.422-7.83-6.855
			c0.596-0.663,1.099-1.577,0.754-2.595c-0.078-0.251-0.262-0.57-0.502-0.926c0.525-0.722,1.039-1.354,1.474-1.861h-1.591
			c-0.217,0.271-0.442,0.56-0.672,0.867c-0.24-0.284-0.504-0.577-0.771-0.867h-1.676c0.616,0.619,1.243,1.283,1.729,1.874
			c-0.035,0.057-0.07,0.103-0.104,0.159c-1.132,1.681-0.96,2.687-0.491,3.336c-0.023,0.023-0.046,0.035-0.046,0.035
			c-0.022,0.013-0.046,0.034-0.067,0.046c-0.023,0.022-5.498,4.479-8,7.027c-1.92-1.988-5.806-5.233-7.394-6.56
			c0.696-0.663,1.474-1.727,1.073-2.913c-0.137-0.436-0.549-1.029-1.086-1.682c0.385-0.502,0.752-0.948,1.074-1.324h-1.586
			c-0.099,0.121-0.197,0.246-0.299,0.377c-0.117-0.126-0.234-0.252-0.352-0.377h-1.703c0.441,0.438,0.896,0.905,1.313,1.359
			c-0.149,0.217-0.31,0.446-0.457,0.674c-1.498,2.251-0.697,3.279,0.058,3.896c-1.179,0.96-5.304,4.388-7.497,6.583
			c-2.332-2.366-7.085-6.262-7.84-6.879c0.469-0.595,0.674-1.508-0.194-2.994c0.733-1.068,1.481-1.986,2.052-2.64h-1.605
			c-0.371,0.455-0.773,0.975-1.178,1.542c-0.405-0.567-0.808-1.087-1.179-1.542h-1.604c0.568,0.652,1.318,1.57,2.052,2.64
			c-0.88,1.486-0.663,2.399-0.194,2.994c-0.742,0.604-5.324,4.377-7.701,6.742c-2.617-2.582-7.668-6.696-7.68-6.708
			c-0.023-0.022-0.046-0.034-0.068-0.046c0-0.012-0.172-0.113-0.4-0.285c0.492-0.63,0.846-1.44,0.548-2.331
			c-0.103-0.311-0.332-0.687-0.64-1.109c0.516-0.609,1.16-1.281,1.777-1.896h-1.687c-0.296,0.314-0.587,0.636-0.856,0.947
			c-0.271-0.313-0.563-0.633-0.859-0.947h-1.689c0.617,0.614,1.264,1.286,1.783,1.896c-0.309,0.424-0.537,0.8-0.641,1.109
			c-0.297,0.891,0.058,1.701,0.55,2.331c-0.229,0.171-0.4,0.273-0.4,0.285c-0.022,0.012-0.046,0.023-0.069,0.046
			c-0.012,0.012-5.166,4.217-7.76,6.787c-2.398-2.423-7.232-6.376-7.815-6.856c0.561-0.594,0.915-1.521-0.022-3.143
			c0.689-0.991,1.383-1.841,1.918-2.456h-1.6c-0.332,0.405-0.689,0.862-1.049,1.359c-0.353-0.492-0.702-0.949-1.032-1.359h-1.59
			c0.545,0.636,1.219,1.474,1.878,2.435c-0.971,1.554-0.811,2.502-0.376,3.131c-1.132,0.926-5.601,4.628-7.771,6.845
			c-2.527-2.56-7.896-6.937-7.92-6.959c-0.023-0.012-0.046-0.033-0.068-0.046c0,0-0.239-0.148-0.537-0.399
			c0.435-0.605,0.731-1.384,0.457-2.218c-0.092-0.263-0.273-0.594-0.525-0.947c0.479-0.583,1.091-1.232,1.693-1.84h-1.687
			c-0.27,0.291-0.532,0.583-0.772,0.867c-0.242-0.284-0.504-0.577-0.772-0.867h-1.681c0.604,0.606,1.216,1.257,1.699,1.84
			c-0.252,0.354-0.445,0.686-0.525,0.947c-0.287,0.834,0.012,1.611,0.457,2.229c-0.298,0.24-0.538,0.389-0.549,0.389
			c-0.021,0.013-0.047,0.034-0.057,0.046c-0.023,0.022-5.406,4.399-7.932,6.959c-2.365-2.435-7.529-6.64-8.011-7.04l-0.022-0.022
			c0.399-0.582,0.561-1.439-0.193-2.799c0.684-1.01,1.388-1.889,1.953-2.549h-1.59c-0.348,0.433-0.717,0.917-1.084,1.438
			c-0.371-0.521-0.74-1.007-1.089-1.438h-1.595c0.564,0.66,1.27,1.539,1.953,2.549c-0.754,1.358-0.594,2.217-0.184,2.799
			L67.07,34.35c-0.469,0.39-5.383,4.412-7.816,6.857c-2.594-2.571-7.736-6.754-7.749-6.776c-0.022-0.012-0.046-0.033-0.067-0.046
			c0,0-0.24-0.148-0.525-0.377c0.445-0.617,0.754-1.394,0.468-2.24c-0.091-0.263-0.285-0.604-0.537-0.971
			c0.476-0.575,1.081-1.216,1.677-1.816h-1.68c-0.266,0.285-0.523,0.574-0.762,0.855c-0.239-0.282-0.498-0.57-0.764-0.855h-1.677
			c0.599,0.601,1.205,1.241,1.685,1.816c-0.262,0.366-0.457,0.708-0.547,0.971c-0.274,0.847,0.022,1.623,0.479,2.24
			c-0.297,0.229-0.526,0.377-0.537,0.377c-0.022,0.013-0.045,0.034-0.057,0.046c-0.023,0.022-5.177,4.218-7.759,6.787
			c-2.423-2.434-7.302-6.422-7.828-6.855c0.583-0.663,1.085-1.577,0.754-2.595c-0.091-0.251-0.263-0.57-0.514-0.926
			c0.529-0.722,1.046-1.354,1.481-1.861h-1.588c-0.216,0.271-0.441,0.56-0.67,0.867c-0.241-0.284-0.504-0.577-0.772-0.867h-1.677
			c0.617,0.619,1.244,1.283,1.729,1.874c-0.033,0.057-0.08,0.103-0.113,0.159c-1.12,1.681-0.948,2.687-0.48,3.336
			c-0.034,0.023-0.057,0.035-0.057,0.035c-0.023,0.013-0.045,0.034-0.068,0.046c-0.012,0.022-5.486,4.479-7.989,7.027
			c-2.262-2.342-7.245-6.422-8.01-7.05c0.469-0.606,0.686-1.509-0.194-3.006c0.656-0.958,1.326-1.791,1.868-2.423h-1.591
			c-0.323,0.401-0.665,0.847-1.008,1.324c-0.343-0.479-0.685-0.923-1.007-1.324h-1.592c0.542,0.632,1.211,1.465,1.868,2.423
			c-0.868,1.497-0.662,2.399-0.194,3.006c-0.766,0.628-5.736,4.696-8,7.039c-0.689-0.703-1.606-1.551-2.57-2.41v1.615
			c0.689,0.623,1.313,1.207,1.782,1.687c-0.137,0.171-0.24,0.331-0.285,0.445c-0.377,0.868-0.172,1.542,0.365,2.239
			c-0.183,0.184-0.388,0.389-0.605,0.595c-0.386,0.386-0.815,0.811-1.257,1.302v1.796c0.27-0.274,0.516-0.535,0.72-0.767
			c0.479-0.549,0.96-1.028,1.394-1.451c0.207-0.194,0.389-0.377,0.561-0.56c0.148,0.147,0.297,0.297,0.457,0.444
			c0.435,0.436,0.926,0.914,1.405,1.463c0.686,0.789,1.829,1.862,2.994,2.972c1.224,1.166,2.48,2.364,3.223,3.176
			c-0.24,0.354-0.389,0.663-0.389,0.903c0,0.183,0.148,0.479,0.423,0.868c-1.143,1.325-3.623,3.852-5.68,5.942
			c-1.005,1.029-1.908,1.941-2.537,2.605c-0.604-0.65-1.474-1.531-2.422-2.503c-0.049-0.05-0.1-0.101-0.148-0.149v1.75
			c0.712,0.727,1.332,1.367,1.771,1.84c-0.479,0.721-0.628,1.373-0.273,2.252c0.091,0.229,0.229,0.469,0.399,0.73
			c-0.32,0.4-0.754,0.857-1.302,1.396c-0.184,0.184-0.383,0.379-0.595,0.58v1.658c0.558-0.504,1.063-0.973,1.462-1.371
			c0.48-0.469,0.88-0.893,1.211-1.281c0.309,0.355,0.675,0.744,1.108,1.178c0.743,0.742,1.84,1.715,2.983,2.721
			c1.451,1.279,2.982,2.629,3.954,3.645c-0.435,0.574-0.696,1.053-0.696,1.43c0,0.299,0.262,0.754,0.708,1.326
			c-0.995,1.051-2.571,2.582-4.148,4.104c-1.497,1.449-2.982,2.891-4,4.055c-0.7-0.785-1.606-1.697-2.582-2.652v1.697
			c0.721,0.703,1.365,1.344,1.852,1.848c-0.412,0.561-0.629,1.008-0.572,1.281c0.057,0.217,0.274,0.57,0.629,1.018
			c-0.493,0.57-1.164,1.293-1.908,2.07v1.752c1.002-1.039,1.953-2.051,2.674-2.887c1.6,1.84,4.239,4.48,6.114,6.365
			c0.788,0.787,1.439,1.451,1.816,1.84l0.046,0.045c-1.188,1.314-1.234,1.762-0.148,3.121c0.034,0.045,0.08,0.092,0.125,0.148
			c-0.765,0.73-1.908,1.771-3.119,2.855c-1.817,1.645-3.771,3.418-4.938,4.605c-0.669-0.684-1.583-1.541-2.57-2.449v1.66
			c0.701,0.645,1.322,1.23,1.771,1.68c-0.103,0.148-0.171,0.264-0.205,0.344l-0.012,0.035c-0.32,0.879-0.628,1.713,0.332,3.063
			c-0.149,0.16-0.309,0.318-0.492,0.504c-0.344,0.326-0.83,0.736-1.394,1.189v1.553c0.915-0.711,1.723-1.369,2.239-1.863
			c0.161-0.148,0.298-0.297,0.435-0.445c0.104,0.113,0.217,0.229,0.343,0.342c1.188,1.135,3.905,3.15,5.966,4.629h2.108
			c-1.955-1.381-5.804-4.146-7.229-5.508c-0.148-0.148-0.285-0.285-0.411-0.412c0.856-1.279,0.56-2.092,0.251-2.947l-0.011-0.035
			c-0.046-0.102-0.149-0.264-0.31-0.455c1.029-1.041,3.063-2.881,4.948-4.572c1.212-1.109,2.366-2.148,3.166-2.902
			c0.8,0.754,1.954,1.793,3.165,2.902c1.886,1.703,3.943,3.555,4.96,4.582c-0.148,0.195-0.251,0.344-0.297,0.445l-0.012,0.035
			c-0.309,0.855-0.606,1.656,0.24,2.926c-0.125,0.137-0.263,0.285-0.423,0.436c-1.425,1.359-5.264,4.125-7.227,5.508h2.112
			c2.054-1.479,4.772-3.496,5.959-4.629c0.126-0.125,0.24-0.24,0.354-0.354c0.137,0.146,0.286,0.295,0.446,0.455
			c1.16,1.109,3.782,3.059,5.821,4.525h2.1c-1.997-1.414-5.681-4.07-7.076-5.404c-0.194-0.184-0.354-0.354-0.503-0.516
			c0.949-1.336,0.64-2.17,0.319-3.051l-0.011-0.033c-0.022-0.08-0.092-0.195-0.206-0.332c1.051-1.051,3.04-2.834,4.869-4.492
			c1.314-1.188,2.548-2.309,3.348-3.084c0.812,0.766,1.988,1.84,3.246,2.982c1.748,1.564,3.622,3.268,4.708,4.33
			c-0.275,0.309-0.457,0.549-0.515,0.697l-0.012,0.033c-0.331,0.914-0.64,1.771,0.435,3.211c-0.046,0.047-0.092,0.092-0.148,0.15
			c-1.431,1.357-5.267,4.119-7.225,5.508h2.109c2.057-1.48,4.771-3.492,5.961-4.629c0.034-0.035,0.08-0.08,0.113-0.115
			c0.07,0.068,0.149,0.15,0.218,0.219c1.162,1.109,3.783,3.057,5.82,4.525h2.103c-2-1.418-5.681-4.072-7.077-5.406
			c-0.08-0.08-0.159-0.16-0.24-0.238c1.189-1.51,0.869-2.391,0.526-3.326l-0.012-0.033c-0.046-0.127-0.194-0.332-0.411-0.584
			c1.097-1.074,2.914-2.719,4.604-4.24c1.566-1.416,3.03-2.73,3.761-3.484c0.741,0.754,2.192,2.068,3.759,3.484
			c1.68,1.521,3.497,3.154,4.594,4.23c-0.229,0.262-0.377,0.469-0.422,0.594l-0.012,0.035c-0.344,0.947-0.663,1.828,0.537,3.336
			c-0.068,0.08-0.148,0.148-0.229,0.23c-1.396,1.332-5.078,3.986-7.078,5.404h2.107c2.037-1.471,4.652-3.416,5.814-4.525
			c0.068-0.068,0.138-0.139,0.207-0.205c0.035,0.033,0.067,0.066,0.103,0.102c1.187,1.135,3.907,3.15,5.961,4.629h2.11
			c-1.959-1.385-5.801-4.145-7.227-5.508c-0.046-0.047-0.092-0.092-0.137-0.137c1.096-1.441,0.777-2.297,0.445-3.225l-0.012-0.033
			c-0.057-0.148-0.24-0.391-0.524-0.709c1.085-1.063,2.959-2.754,4.696-4.318c1.258-1.143,2.445-2.217,3.246-2.982
			c0.801,0.766,1.988,1.84,3.246,2.982c1.84,1.656,3.838,3.463,4.879,4.512c-0.183,0.221-0.309,0.4-0.354,0.516l-0.011,0.035
			c-0.309,0.867-0.617,1.691,0.298,3.016c-0.104,0.104-0.218,0.219-0.345,0.346c-1.436,1.361-5.269,4.123-7.227,5.508h2.105
			c2.061-1.479,4.779-3.494,5.967-4.629c0.092-0.104,0.193-0.193,0.285-0.287c0.115,0.127,0.24,0.252,0.377,0.391
			c1.162,1.109,3.783,3.057,5.82,4.525h2.102c-1.998-1.422-5.676-4.078-7.075-5.404c-0.16-0.162-0.297-0.299-0.423-0.438
			c1.005-1.395,0.697-2.227,0.377-3.129l-0.012-0.035c-0.034-0.092-0.125-0.229-0.262-0.4c1.063-1.063,3.004-2.811,4.787-4.422
			c1.577-1.43,3.04-2.754,3.771-3.496c0.742,0.742,2.205,2.066,3.783,3.496c1.781,1.611,3.713,3.359,4.775,4.41
			c-0.137,0.172-0.229,0.32-0.262,0.412l-0.012,0.035c-0.332,0.902-0.641,1.746,0.377,3.129c-0.127,0.139-0.264,0.287-0.424,0.438
			c-1.39,1.326-5.065,3.982-7.068,5.404h2.099c2.037-1.471,4.654-3.416,5.815-4.525c0.138-0.127,0.263-0.252,0.389-0.377
			c0.08,0.09,0.172,0.184,0.273,0.273c1.191,1.139,3.904,3.148,5.963,4.629h2.107c-1.951-1.383-5.793-4.141-7.224-5.508
			c-0.126-0.127-0.24-0.229-0.343-0.346c0.914-1.313,0.617-2.137,0.297-3.016l-0.012-0.035c-0.034-0.113-0.16-0.295-0.354-0.523
			c1.04-1.041,3.04-2.848,4.879-4.504c1.133-1.027,2.206-2.012,2.995-2.754c0.812,0.766,1.987,1.828,3.233,2.961
			c1.736,1.576,3.623,3.277,4.695,4.342c-0.273,0.311-0.445,0.547-0.502,0.697l-0.012,0.033c-0.331,0.914-0.65,1.771,0.434,3.199
			c-0.045,0.047-0.103,0.104-0.146,0.148c-1.366,1.303-4.909,3.865-6.938,5.303h2.11c2.013-1.455,4.538-3.334,5.662-4.422
			c0.045-0.035,0.08-0.068,0.125-0.104c0.069,0.066,0.138,0.137,0.217,0.217c1.107,1.057,3.534,2.871,5.522,4.309h2.102
			c-2.05-1.455-5.453-3.928-6.777-5.199c-0.092-0.078-0.172-0.16-0.24-0.24c1.188-1.496,0.867-2.375,0.525-3.313l-0.012-0.035
			c-0.059-0.137-0.193-0.33-0.412-0.594c1.098-1.063,2.915-2.709,4.605-4.24c1.496-1.348,2.891-2.615,3.656-3.371
			c0.767,0.756,2.16,2.023,3.656,3.371c1.646,1.498,3.417,3.098,4.525,4.16c-0.264,0.297-0.434,0.525-0.479,0.674l-0.012,0.035
			c-0.354,0.949-0.675,1.852,0.594,3.404c-0.057,0.047-0.104,0.104-0.16,0.148c-1.324,1.271-4.728,3.744-6.777,5.199h2.097
			c1.99-1.438,4.42-3.252,5.526-4.309c0.046-0.057,0.093-0.104,0.148-0.148l0.034,0.035c1.131,1.086,3.653,2.967,5.67,4.422h2.095
			c-2.033-1.438-5.564-3.998-6.918-5.303l-0.07-0.057c1.154-1.486,0.847-2.365,0.504-3.291l-0.012-0.035
			c-0.059-0.158-0.264-0.434-0.584-0.777c1.097-1.074,2.926-2.719,4.627-4.262c1.211-1.098,2.367-2.137,3.166-2.902
			c0.801,0.768,1.955,1.805,3.166,2.902c1.783,1.611,3.703,3.338,4.776,4.398c-0.251,0.285-0.411,0.504-0.457,0.641l-0.012,0.035
			c-0.331,0.9-0.64,1.748,0.377,3.131c-0.067,0.066-0.138,0.146-0.217,0.217c-1.354,1.305-4.886,3.865-6.919,5.303h2.094
			c2.018-1.455,4.54-3.336,5.67-4.422c0.057-0.057,0.114-0.115,0.171-0.172c0.091,0.092,0.183,0.182,0.286,0.285
			c1.105,1.053,3.532,2.871,5.521,4.309h2.101c-2.054-1.455-5.454-3.932-6.774-5.199c-0.115-0.104-0.218-0.205-0.31-0.299
			c1.12-1.461,0.812-2.33,0.469-3.256l-0.012-0.033c-0.046-0.127-0.16-0.297-0.354-0.525c1.086-1.063,2.948-2.742,4.674-4.311
			c1.121-1.016,2.184-1.977,2.972-2.719c0.743,0.697,1.669,1.531,2.641,2.412c1.886,1.701,3.931,3.553,4.96,4.582
			c-0.16,0.193-0.264,0.344-0.298,0.445l-0.011,0.033c-0.321,0.857-0.605,1.656,0.229,2.926c-0.113,0.139-0.263,0.287-0.41,0.436
			c-1.43,1.363-5.265,4.125-7.223,5.508h2.094c2.062-1.479,4.779-3.49,5.974-4.629c0.125-0.125,0.239-0.238,0.343-0.354
			c0.137,0.148,0.286,0.297,0.457,0.457c1.16,1.109,3.775,3.059,5.813,4.525h2.106c-2.003-1.416-5.678-4.072-7.073-5.404
			c-0.193-0.186-0.365-0.355-0.503-0.516c0.937-1.338,0.642-2.172,0.32-3.051l-0.011-0.035c-0.035-0.08-0.104-0.193-0.207-0.332
			c1.052-1.051,3.029-2.832,4.856-4.49c1.314-1.188,2.56-2.309,3.36-3.086c0.8,0.768,1.988,1.842,3.246,2.982
			c1.736,1.566,3.611,3.268,4.697,4.332c-0.275,0.307-0.459,0.547-0.504,0.695l-0.012,0.035c-0.331,0.914-0.65,1.771,0.436,3.211
			c-0.058,0.045-0.104,0.092-0.148,0.148c-1.432,1.357-5.268,4.121-7.225,5.508h2.101c2.06-1.48,4.776-3.49,5.959-4.629
			c0.045-0.033,0.079-0.078,0.114-0.113c0.079,0.068,0.148,0.148,0.229,0.217c1.161,1.109,3.778,3.057,5.816,4.525h2.105
			c-2.002-1.418-5.688-4.07-7.076-5.404c-0.092-0.08-0.172-0.16-0.24-0.24c1.177-1.508,0.857-2.391,0.525-3.324l-0.022-0.035
			c-0.045-0.125-0.183-0.332-0.399-0.582c1.096-1.076,2.914-2.721,4.604-4.24c1.565-1.418,3.017-2.732,3.76-3.484
			c0.731,0.752,2.193,2.066,3.76,3.484c1.681,1.521,3.485,3.152,4.582,4.229c-0.217,0.264-0.364,0.469-0.422,0.596l-0.012,0.033
			c-0.343,0.947-0.663,1.828,0.537,3.338c-0.068,0.078-0.137,0.146-0.217,0.229c-1.396,1.334-5.078,3.986-7.076,5.404h2.098
			c2.039-1.469,4.658-3.416,5.813-4.525c0.08-0.066,0.148-0.137,0.217-0.205c0.022,0.033,0.057,0.068,0.091,0.104
			c1.197,1.135,3.911,3.148,5.968,4.629h2.104c-1.957-1.385-5.791-4.146-7.227-5.508c-0.045-0.047-0.091-0.094-0.137-0.139
			c1.098-1.439,0.788-2.297,0.457-3.223l-0.023-0.035c-0.045-0.148-0.228-0.389-0.514-0.707c1.086-1.064,2.948-2.754,4.686-4.32
			c1.257-1.143,2.445-2.217,3.245-2.982c0.801,0.768,1.989,1.842,3.246,2.982c1.852,1.656,3.841,3.463,4.892,4.514
			c-0.194,0.219-0.31,0.4-0.354,0.516l-0.012,0.035c-0.319,0.867-0.616,1.689,0.286,3.016c-0.104,0.104-0.217,0.219-0.342,0.344
			c-1.427,1.363-5.269,4.123-7.228,5.508h2.111c2.054-1.479,4.772-3.492,5.961-4.629c0.103-0.102,0.195-0.191,0.286-0.285
			c0.113,0.125,0.251,0.252,0.388,0.389c1.162,1.109,3.779,3.057,5.816,4.525h2.099c-2.003-1.42-5.679-4.076-7.069-5.404
			C220.314,115.453,220.166,115.319,220.041,115.18z M219.229,43.381c0.013-0.046,0.046-0.104,0.092-0.172
			c0.022,0.023,0.034,0.046,0.034,0.068c0.114,0.251,0.069,0.514-0.091,0.789C219.149,43.826,219.126,43.597,219.229,43.381z
			 M5.326,43.952C5.222,43.722,5.2,43.517,5.28,43.311c0.012,0.022,0.023,0.046,0.035,0.068C5.394,43.563,5.394,43.757,5.326,43.952
			z M5.326,113.946c-0.218-0.48-0.161-0.855-0.046-1.211C5.405,113.102,5.497,113.465,5.326,113.946z M219.332,89.307
			c0.114,0.139,0.171,0.23,0.16,0.266c-0.013,0.09-0.104,0.229-0.24,0.424c-0.091-0.141-0.149-0.252-0.16-0.322
			C219.08,89.629,219.172,89.502,219.332,89.307z M214.544,84.496c1.565,1.521,3.108,3.018,4.056,3.99
			c-0.503,0.648-0.776,1.152-0.708,1.461c0.045,0.207,0.264,0.549,0.596,0.982c-1.476,1.668-4.241,4.436-6.173,6.365
			c-0.8,0.811-1.462,1.475-1.84,1.863l-0.045,0.057l-0.035,0.023l-0.022-0.023l-0.057-0.057c-0.365-0.391-1.028-1.053-1.841-1.863
			c-1.84-1.852-4.456-4.469-5.965-6.148c0.423-0.537,0.696-0.959,0.754-1.199c0.08-0.33-0.263-0.926-0.869-1.668
			c0.959-0.973,2.4-2.365,3.862-3.783c1.531-1.475,3.074-2.971,4.137-4.16C211.47,81.526,213.012,83.022,214.544,84.496z
			 M201.642,87.41c-0.995-1.098-2.332-2.389-3.68-3.68v-0.012c-2-1.932-4.022-3.885-4.812-4.855c0.125-0.23,0.193-0.424,0.193-0.572
			c0-0.182-0.068-0.41-0.193-0.662c0.789-1.018,2.776-2.766,4.628-4.4c1.144-1.016,2.239-1.988,2.981-2.73
			c0.377-0.365,0.698-0.697,0.972-1.006c0.252,0.273,0.55,0.584,0.882,0.902c0.741,0.742,1.839,1.715,2.981,2.721
			c1.484,1.326,3.063,2.709,4.033,3.736c-0.4,0.525-0.628,0.982-0.628,1.336c0,0.273,0.24,0.711,0.639,1.234
			c-0.981,1.064-2.616,2.631-4.228,4.195C204.019,84.965,202.646,86.303,201.642,87.41z M202.076,89.674
			c-0.034,0.113-0.148,0.295-0.354,0.561c-0.24-0.311-0.389-0.537-0.423-0.662c-0.012-0.047,0.114-0.219,0.343-0.48
			C201.927,89.41,202.087,89.617,202.076,89.674z M191.768,78.864c-0.787,0.971-2.812,2.926-4.812,4.855v0.012
			c-1.349,1.305-2.685,2.594-3.691,3.691c-1.005-1.109-2.388-2.457-3.78-3.807c-1.623-1.564-3.258-3.154-4.24-4.217
			c0.342-0.469,0.549-0.846,0.549-1.107c0-0.355-0.24-0.813-0.629-1.338c0.96-1.027,2.594-2.469,4.137-3.84
			c1.143-1.006,2.24-1.979,2.982-2.721c0.33-0.33,0.629-0.641,0.892-0.926c0.286,0.32,0.606,0.662,0.983,1.029
			c0.742,0.742,1.839,1.715,2.981,2.73c1.862,1.635,3.853,3.383,4.628,4.398c-0.125,0.252-0.193,0.48-0.193,0.664
			C191.574,78.44,191.643,78.635,191.768,78.864z M183.597,89.571c-0.034,0.125-0.183,0.344-0.411,0.639
			c-0.195-0.24-0.309-0.434-0.332-0.535c-0.021-0.057,0.137-0.252,0.411-0.561C183.482,89.354,183.609,89.524,183.597,89.571z
			 M181.654,89.948c0.058,0.24,0.332,0.65,0.742,1.176c-1.508,1.691-4.125,4.32-5.977,6.174c-0.811,0.811-1.475,1.473-1.84,1.861
			l-0.057,0.057l-0.127,0.139l-0.033-0.035l-0.058-0.057c-0.366-0.389-1.028-1.051-1.829-1.852c-2-2.014-4.902-4.904-6.318-6.561
			c0.343-0.445,0.56-0.801,0.604-1.006c0.068-0.273-0.149-0.709-0.548-1.268c0.938-0.973,2.48-2.471,4.034-3.979
			c1.577-1.52,3.176-3.063,4.239-4.273c1.074,1.199,2.617,2.695,4.147,4.172c1.462,1.416,2.925,2.822,3.875,3.805
			C181.918,89.033,181.574,89.617,181.654,89.948z M165.484,87.686c-1.018-1.168-2.515-2.605-4.022-4.068
			c-1.313-1.27-2.628-2.547-3.61-3.555c0.561-0.674,0.902-1.223,0.902-1.555c0-0.492-0.457-1.199-1.177-1.998
			c0.983-0.982,2.376-2.219,3.702-3.395c1.144-1.006,2.24-1.979,2.982-2.721c0.446-0.434,0.811-0.834,1.131-1.188
			c0.332,0.389,0.731,0.811,1.211,1.291c0.743,0.742,1.842,1.715,2.983,2.73c1.496,1.314,3.085,2.721,4.056,3.736
			c-0.342,0.48-0.548,0.902-0.548,1.223c0,0.273,0.24,0.697,0.64,1.223c-0.971,1.063-2.662,2.697-4.33,4.311v0.01
			C167.941,85.137,166.502,86.541,165.484,87.686z M165.576,89.571c-0.022,0.068-0.08,0.184-0.172,0.318
			c-0.055-0.09-0.09-0.158-0.103-0.217c-0.011-0.033,0.048-0.137,0.173-0.285C165.542,89.479,165.576,89.547,165.576,89.571z
			 M164.102,89.948c0.045,0.193,0.239,0.502,0.525,0.902c-1.451,1.656-4.273,4.49-6.229,6.445c-0.675,0.674-1.246,1.256-1.635,1.656
			c-0.365-0.365-0.822-0.822-1.326-1.336c-1.92-1.92-4.662-4.662-6.136-6.344c0.435-0.549,0.72-0.971,0.777-1.211
			c0.069-0.309-0.206-0.822-0.708-1.475c0.947-0.971,2.388-2.365,3.839-3.771c1.405-1.348,2.812-2.709,3.851-3.852
			c1.006,1.074,2.286,2.309,3.555,3.531c1.611,1.555,3.201,3.098,4.125,4.068C164.285,89.172,164.033,89.662,164.102,89.948z
			 M148.617,87.696c-1.006-1.119-2.422-2.49-3.84-3.861c-1.576-1.521-3.153-3.051-4.147-4.113c0.446-0.572,0.708-1.027,0.708-1.314
			c0-0.377-0.262-0.867-0.695-1.428c0.971-1.02,2.502-2.367,3.953-3.646c1.143-1.004,2.24-1.979,2.982-2.719
			c0.354-0.367,0.674-0.688,0.949-0.996c0.297,0.334,0.64,0.697,1.039,1.098c0.742,0.744,1.84,1.715,2.983,2.721
			c1.199,1.063,2.457,2.17,3.405,3.098c-0.537,0.664-0.881,1.234-0.881,1.656c0,0.391,0.459,1.063,1.188,1.896
			c-0.993,1.039-2.444,2.457-3.897,3.852C150.995,85.274,149.623,86.588,148.617,87.696z M148.88,89.787
			c-0.022,0.104-0.149,0.299-0.343,0.561c-0.16-0.205-0.251-0.367-0.274-0.457c-0.012-0.057,0.114-0.229,0.354-0.502
			C148.8,89.594,148.893,89.742,148.88,89.787z M147.063,90.164c0.058,0.229,0.31,0.605,0.697,1.107
			c-1.508,1.682-4.171,4.355-6.057,6.24c-0.801,0.801-1.463,1.463-1.84,1.863c-0.377-0.4-1.041-1.064-1.84-1.863
			c-1.828-1.828-4.389-4.389-5.908-6.08c0.457-0.57,0.755-1.016,0.813-1.268c0.092-0.355-0.273-0.961-0.915-1.738
			c0.949-0.969,2.366-2.342,3.783-3.713c1.497-1.451,3.005-2.902,4.067-4.08c1.063,1.178,2.572,2.629,4.068,4.08
			c1.497,1.451,2.982,2.891,3.932,3.863C147.303,89.285,146.995,89.834,147.063,90.164z M131.247,87.549
			c-0.994-1.076-2.298-2.344-3.611-3.613c-1.909-1.838-3.84-3.701-4.696-4.719c0.184-0.285,0.274-0.523,0.274-0.709
			c0-0.229-0.091-0.502-0.274-0.811c0.856-1.041,2.742-2.697,4.502-4.264c1.154-1.006,2.252-1.977,2.994-2.721
			c0.344-0.342,0.641-0.65,0.902-0.947c0.24,0.264,0.516,0.537,0.813,0.846c0.742,0.742,1.84,1.715,2.981,2.721
			c1.452,1.279,2.981,2.627,3.955,3.645c-0.435,0.561-0.697,1.051-0.697,1.43c0,0.285,0.263,0.742,0.708,1.313
			c-0.994,1.064-2.57,2.594-4.148,4.113C133.59,85.149,132.242,86.451,131.247,87.549z M131.738,89.891
			c-0.022,0.113-0.172,0.33-0.399,0.629c-0.285-0.344-0.469-0.605-0.491-0.73c-0.011-0.059,0.127-0.252,0.4-0.549
			C131.566,89.594,131.751,89.823,131.738,89.891z M121.521,79.217c-0.867,1.018-2.787,2.881-4.695,4.719
			c-1.35,1.305-2.686,2.605-3.691,3.691c-1.006-1.109-2.389-2.445-3.783-3.793c-1.588-1.543-3.188-3.086-4.17-4.148
			c0.525-0.65,0.846-1.178,0.846-1.498c0-0.354-0.239-0.834-0.651-1.369c0.971-0.994,2.423-2.273,3.794-3.486
			c1.143-1.004,2.24-1.979,2.982-2.719c0.343-0.332,0.627-0.643,0.891-0.928c0.286,0.311,0.605,0.652,0.982,1.029
			c0.742,0.744,1.84,1.713,2.982,2.719c1.771,1.566,3.657,3.225,4.514,4.264c-0.183,0.311-0.273,0.584-0.273,0.813
			C121.248,78.694,121.339,78.932,121.521,79.217z M113.466,89.787c-0.035,0.115-0.185,0.344-0.412,0.641
			c-0.194-0.252-0.309-0.434-0.332-0.537c-0.011-0.057,0.138-0.262,0.412-0.57C113.352,89.571,113.477,89.731,113.466,89.787z
			 M111.523,90.164c0.057,0.229,0.33,0.65,0.754,1.178c-1.51,1.68-4.137,4.309-5.988,6.17c-0.708,0.709-1.303,1.305-1.691,1.703
			l-0.046-0.057c-0.377-0.389-1.04-1.053-1.839-1.861c-1.932-1.92-4.686-4.686-6.16-6.367c0.332-0.434,0.549-0.775,0.596-0.98
			c0.068-0.309-0.207-0.813-0.709-1.463c0.938-0.982,2.491-2.48,4.045-3.988h0.012c1.417-1.371,2.857-2.768,3.908-3.908
			c1.063,1.188,2.595,2.662,4.104,4.125c1.462,1.416,2.926,2.822,3.874,3.793C111.786,89.25,111.454,89.823,111.523,90.164z
			 M95.695,87.606c-1.006-1.133-2.424-2.504-3.852-3.875v-0.01c-2.011-1.943-4.045-3.91-4.822-4.881
			c0.114-0.217,0.184-0.4,0.184-0.549c0-0.184-0.068-0.398-0.194-0.639c0.777-1.008,2.777-2.777,4.651-4.424
			c1.143-1.018,2.24-1.988,2.982-2.73c0.444-0.445,0.834-0.846,1.143-1.213c0.298,0.346,0.652,0.709,1.052,1.109
			c0.743,0.742,1.84,1.713,2.981,2.721c1.463,1.291,3.018,2.662,3.988,3.68c-0.525,0.639-0.846,1.199-0.846,1.611
			c0,0.285,0.252,0.719,0.674,1.268c-1.005,1.041-2.502,2.502-4,3.943C98.175,85.045,96.712,86.451,95.695,87.606z M95.947,89.674
			c-0.012,0.08-0.069,0.182-0.172,0.32c-0.138-0.186-0.217-0.332-0.239-0.424c-0.013-0.035,0.045-0.125,0.159-0.275
			C95.867,89.502,95.959,89.629,95.947,89.674z M85.639,78.84c-0.777,0.971-2.811,2.938-4.822,4.881v0.01
			c-1.429,1.371-2.846,2.742-3.862,3.875c-1.017-1.143-2.479-2.561-3.955-3.988c-1.611-1.564-3.233-3.131-4.228-4.193
			c0.41-0.525,0.641-0.961,0.641-1.234c0-0.354-0.229-0.811-0.629-1.336c0.971-1.027,2.548-2.412,4.033-3.736
			c1.144-1.006,2.24-1.979,2.982-2.721c0.412-0.412,0.766-0.777,1.063-1.109c0.32,0.367,0.697,0.768,1.154,1.213
			c0.742,0.742,1.84,1.715,2.982,2.73c1.863,1.646,3.874,3.416,4.64,4.424c-0.114,0.238-0.183,0.457-0.183,0.639
			C85.456,78.44,85.525,78.623,85.639,78.84z M77.115,89.571c-0.023,0.092-0.104,0.229-0.24,0.424
			c-0.092-0.141-0.148-0.252-0.172-0.32c-0.012-0.045,0.08-0.172,0.251-0.367C77.068,89.446,77.126,89.535,77.115,89.571z
			 M75.514,89.948c0.047,0.207,0.252,0.549,0.583,0.982c-1.475,1.668-4.229,4.436-6.159,6.365c-0.801,0.811-1.463,1.475-1.841,1.863
			l-0.046,0.057l-0.033,0.023l-0.035-0.023l-0.045-0.057c-0.377-0.391-1.039-1.053-1.84-1.863c-1.852-1.852-4.458-4.469-5.978-6.148
			c0.435-0.537,0.708-0.959,0.767-1.199c0.068-0.33-0.263-0.926-0.869-1.668c0.949-0.973,2.399-2.365,3.853-3.783h0.012
			c1.53-1.475,3.062-2.973,4.138-4.16c1.063,1.188,2.604,2.686,4.137,4.16c1.564,1.521,3.119,3.018,4.057,3.99
			C75.709,89.137,75.445,89.641,75.514,89.948z M59.253,87.41c-0.995-1.098-2.332-2.389-3.668-3.68v-0.012
			c-2-1.932-4.022-3.885-4.812-4.855c0.125-0.23,0.193-0.424,0.193-0.572c0-0.182-0.068-0.41-0.193-0.662
			c0.777-1.018,2.766-2.766,4.629-4.4c1.142-1.016,2.24-1.988,2.981-2.73c0.365-0.365,0.687-0.697,0.972-1.006
			c0.25,0.273,0.537,0.584,0.869,0.902c0.742,0.742,1.84,1.715,2.981,2.721c1.497,1.326,3.073,2.709,4.045,3.736
			c-0.399,0.525-0.64,0.982-0.64,1.336c0,0.273,0.24,0.711,0.64,1.234c-0.981,1.064-2.604,2.631-4.228,4.195
			C61.641,84.965,60.258,86.303,59.253,87.41z M59.688,89.674c-0.023,0.113-0.149,0.295-0.344,0.561
			c-0.24-0.311-0.4-0.537-0.422-0.662c-0.012-0.047,0.114-0.219,0.332-0.48C59.538,89.41,59.697,89.617,59.688,89.674z
			 M49.391,78.864c-0.801,0.971-2.812,2.926-4.812,4.855v0.012c-1.349,1.305-2.697,2.594-3.691,3.691
			c-1.006-1.109-2.389-2.457-3.782-3.807c-1.623-1.564-3.257-3.154-4.24-4.217c0.343-0.469,0.549-0.846,0.549-1.107
			c0-0.355-0.239-0.813-0.628-1.338c0.949-1.027,2.594-2.469,4.137-3.84c1.143-1.006,2.24-1.979,2.982-2.721
			c0.332-0.33,0.629-0.641,0.891-0.926c0.275,0.32,0.606,0.662,0.983,1.029c0.743,0.742,1.84,1.715,2.983,2.73
			c1.851,1.635,3.839,3.383,4.628,4.398c-0.126,0.252-0.195,0.48-0.195,0.664C49.195,78.44,49.266,78.635,49.391,78.864z
			 M41.209,89.571c-0.023,0.125-0.172,0.344-0.412,0.639c-0.182-0.24-0.308-0.434-0.331-0.535c-0.012-0.057,0.137-0.252,0.423-0.561
			C41.105,89.354,41.219,89.524,41.209,89.571z M39.277,89.948c0.057,0.24,0.32,0.65,0.743,1.176
			c-1.509,1.691-4.137,4.32-5.988,6.174c-0.8,0.811-1.463,1.473-1.84,1.861l-0.045,0.057l-0.137,0.139l-0.035-0.035l-0.045-0.057
			c-0.377-0.389-1.04-1.051-1.841-1.852c-1.999-2.014-4.89-4.904-6.318-6.561c0.342-0.445,0.571-0.801,0.617-1.006
			c0.057-0.273-0.149-0.709-0.56-1.268c0.948-0.973,2.491-2.471,4.045-3.979c1.577-1.52,3.165-3.063,4.239-4.273
			c1.063,1.199,2.605,2.695,4.137,4.172h0.011c1.462,1.416,2.914,2.822,3.862,3.805C39.529,89.033,39.197,89.617,39.277,89.948z
			 M23.095,87.686c-1.017-1.168-2.502-2.605-4.011-4.068c-1.565-1.52-3.154-3.053-4.148-4.102c0.445-0.572,0.708-1.027,0.708-1.328
			c0-0.377-0.263-0.854-0.697-1.428c0.971-1.018,2.502-2.365,3.955-3.645c1.143-1.006,2.239-1.979,2.982-2.721
			c0.434-0.434,0.812-0.834,1.12-1.188c0.332,0.389,0.732,0.811,1.223,1.291c0.742,0.742,1.84,1.715,2.982,2.73
			c1.497,1.314,3.074,2.721,4.045,3.736c-0.343,0.48-0.537,0.902-0.537,1.223c0,0.273,0.229,0.697,0.628,1.223
			c-0.971,1.063-2.651,2.697-4.32,4.311v0.01C25.564,85.137,24.112,86.541,23.095,87.686z M23.187,89.571
			c-0.012,0.068-0.069,0.184-0.171,0.318c-0.057-0.09-0.091-0.158-0.103-0.217c-0.011-0.033,0.057-0.137,0.183-0.285
			C23.164,89.479,23.198,89.547,23.187,89.571z M23.073,66.315c0.08,0.23,0.08,0.457-0.034,0.721v0.012
			C22.947,66.783,22.969,66.555,23.073,66.315z M23.895,65.264c0.594-0.629,1.508-1.555,2.525-2.594
			c1.989-2.034,4.389-4.457,5.68-6.08c1.325,1.623,3.657,3.988,5.61,5.978c0.926,0.947,1.76,1.793,2.343,2.41
			c-0.114,0.139-0.194,0.252-0.251,0.332c-0.514,0.729-0.686,1.395-0.309,2.297c0.115,0.273,0.274,0.57,0.515,0.902
			c-0.274,0.309-0.595,0.641-0.972,1.018c-0.766,0.777-1.828,1.703-2.925,2.674c-1.485,1.303-3.04,2.686-4.102,3.852
			c-1.052-1.143-2.56-2.479-3.988-3.748c-1.109-0.971-2.16-1.896-2.937-2.674c-0.548-0.549-0.983-1.006-1.303-1.406
			c0.172-0.262,0.298-0.502,0.389-0.721C24.524,66.625,24.375,65.973,23.895,65.264z M32.18,78.291c0,0.047-0.022,0.125-0.08,0.217
			c-0.103-0.146-0.161-0.252-0.161-0.32c0-0.066,0.035-0.158,0.092-0.273C32.124,78.074,32.18,78.199,32.18,78.291z M40.808,65.994
			c0.012-0.021,0.046-0.057,0.069-0.09c0.262,0.387,0.354,0.709,0.182,1.131c-0.057,0.148-0.149,0.297-0.251,0.469
			c-0.08-0.125-0.137-0.252-0.183-0.365C40.443,66.715,40.546,66.385,40.808,65.994z M45.574,72.303
			c-1.108-0.971-2.159-1.895-2.926-2.672c-0.422-0.414-0.777-0.779-1.063-1.109c0.274-0.379,0.479-0.709,0.605-1.018
			c0.366-0.902,0.194-1.564-0.308-2.309c-0.046-0.059-0.103-0.125-0.171-0.205c0.582-0.605,1.382-1.418,2.263-2.32
			c2.239-2.274,4.971-5.05,6.103-6.628c1.143,1.578,3.874,4.354,6.112,6.628c0.869,0.891,1.657,1.691,2.24,2.309
			c-0.08,0.08-0.137,0.158-0.183,0.217c-0.502,0.744-0.675,1.406-0.31,2.309c0.127,0.309,0.332,0.652,0.618,1.041
			c-0.286,0.32-0.628,0.674-1.04,1.086c-0.765,0.777-1.828,1.703-2.925,2.674c-1.69,1.496-3.474,3.072-4.514,4.33
			C49.048,75.377,47.254,73.801,45.574,72.303z M59.253,65.893h0.011c0.034,0.035,0.068,0.08,0.08,0.104
			c0.275,0.389,0.366,0.721,0.194,1.143c-0.046,0.125-0.114,0.252-0.205,0.391c-0.114-0.186-0.194-0.344-0.263-0.492
			C58.898,66.614,58.99,66.28,59.253,65.893z M75.73,67.608c0.082,0.217,0.207,0.445,0.366,0.686
			c-0.309,0.354-0.686,0.766-1.153,1.234c-0.777,0.777-1.83,1.703-2.938,2.674c-1.428,1.27-2.938,2.596-3.988,3.736
			c-1.063-1.143-2.56-2.469-4-3.736c-1.097-0.971-2.16-1.896-2.925-2.674c-0.366-0.365-0.687-0.697-0.96-0.994
			c0.24-0.344,0.423-0.641,0.537-0.926c0.366-0.902,0.195-1.566-0.309-2.297c-0.058-0.092-0.148-0.207-0.273-0.344
			c0.582-0.617,1.416-1.463,2.33-2.398c1.955-1.989,4.273-4.344,5.602-5.965c1.313,1.621,3.645,3.977,5.586,5.965
			c1.029,1.039,1.943,1.977,2.537,2.604c-0.045,0.047-0.08,0.092-0.103,0.139C75.525,66.039,75.354,66.703,75.73,67.608z
			 M68.189,78.188c0,0.068-0.058,0.184-0.172,0.346c-0.113-0.162-0.172-0.275-0.172-0.346c0-0.102,0.059-0.238,0.172-0.408
			C68.132,77.948,68.189,78.086,68.189,78.188z M76.931,66.166c0.138,0.287,0.16,0.549,0.034,0.869
			c-0.023,0.059-0.057,0.113-0.08,0.172c-0.011-0.023-0.021-0.047-0.021-0.068C76.714,66.783,76.76,66.487,76.931,66.166z
			 M81.811,72.303c-1.107-0.971-2.16-1.895-2.926-2.672c-0.514-0.504-0.926-0.949-1.246-1.328c0.206-0.285,0.354-0.547,0.457-0.799
			c0.366-0.902,0.194-1.564-0.32-2.309l-0.01-0.012c0.594-0.629,1.461-1.521,2.445-2.516c2.238-2.285,4.982-5.074,6.113-6.638
			c1.132,1.564,3.873,4.354,6.125,6.638c0.972,0.994,1.84,1.887,2.434,2.504l-0.023,0.021c-0.502,0.744-0.674,1.406-0.308,2.309
			c0.103,0.252,0.251,0.514,0.457,0.813c-0.319,0.379-0.72,0.813-1.233,1.314c-0.767,0.777-1.83,1.703-2.926,2.674
			c-1.691,1.496-3.486,3.084-4.525,4.342C85.296,75.389,83.503,73.801,81.811,72.303z M95.718,66.156
			c0.183,0.318,0.229,0.615,0.08,0.98c-0.012,0.023-0.022,0.047-0.034,0.08c-0.021-0.068-0.057-0.125-0.08-0.184
			C95.547,66.715,95.581,66.442,95.718,66.156z M111.74,67.813c0.113,0.285,0.285,0.582,0.525,0.914
			c-0.273,0.297-0.594,0.641-0.982,1.018c-0.766,0.766-1.816,1.703-2.926,2.674c-1.326,1.178-2.719,2.398-3.758,3.486
			c-1.052-1.133-2.55-2.445-3.967-3.703c-1.097-0.971-2.16-1.896-2.926-2.674c-0.469-0.471-0.846-0.869-1.154-1.225
			c0.16-0.25,0.286-0.479,0.377-0.695c0.366-0.902,0.206-1.566-0.308-2.297c-0.022-0.047-0.069-0.092-0.103-0.148
			c0.582-0.629,1.496-1.555,2.514-2.594c1.852-1.875,4.033-4.092,5.382-5.703c1.325,1.622,3.61,3.954,5.543,5.919
			c0.925,0.938,1.771,1.793,2.354,2.41c-0.113,0.139-0.205,0.24-0.263,0.32C111.546,66.258,111.375,66.92,111.74,67.813z
			 M104.804,78.188c0,0.105-0.138,0.32-0.389,0.619c-0.147-0.195-0.218-0.332-0.218-0.4c0-0.158,0.138-0.398,0.377-0.709
			C104.725,77.903,104.804,78.074,104.804,78.188z M113.066,66.213c0.012-0.023,0.035-0.057,0.068-0.092
			c0.264,0.377,0.344,0.709,0.171,1.131c-0.057,0.137-0.137,0.297-0.251,0.457c-0.068-0.125-0.137-0.24-0.183-0.354
			C112.699,66.932,112.792,66.602,113.066,66.213z M117.82,72.52c-1.099-0.971-2.16-1.906-2.926-2.674
			c-0.424-0.422-0.766-0.789-1.053-1.107c0.275-0.375,0.469-0.721,0.596-1.027c0.377-0.893,0.205-1.555-0.309-2.297
			c-0.035-0.059-0.092-0.127-0.161-0.219c0.583-0.605,1.384-1.416,2.251-2.309c2.184-2.217,4.823-4.901,6.012-6.49
			c1.188,1.589,3.828,4.272,6.012,6.49c0.834,0.848,1.6,1.635,2.171,2.23c-0.103,0.125-0.183,0.217-0.24,0.297
			c-0.515,0.742-0.674,1.404-0.308,2.297c0.138,0.342,0.354,0.697,0.674,1.119c-0.273,0.297-0.594,0.641-0.971,1.016
			c-0.777,0.768-1.83,1.705-2.926,2.676c-1.635,1.439-3.361,2.959-4.412,4.205C121.179,75.479,119.454,73.961,117.82,72.52z
			 M131.178,66.11c0.023-0.023,0.047-0.057,0.069-0.092c0.069,0.08,0.114,0.146,0.149,0.193c0.273,0.389,0.364,0.721,0.193,1.143
			c-0.068,0.148-0.148,0.309-0.263,0.48c-0.148-0.217-0.263-0.41-0.331-0.582C130.824,66.83,130.916,66.487,131.178,66.11z
			 M147.281,67.813c0.103,0.264,0.263,0.537,0.468,0.834c-0.286,0.32-0.628,0.686-1.039,1.098c-0.767,0.766-1.829,1.703-2.927,2.674
			c-1.405,1.234-2.867,2.525-3.918,3.656c-1.053-1.131-2.514-2.422-3.92-3.656c-1.098-0.971-2.16-1.908-2.926-2.674
			c-0.343-0.344-0.641-0.65-0.892-0.926c0.274-0.365,0.468-0.695,0.594-1.006c0.366-0.893,0.194-1.555-0.319-2.297
			c-0.058-0.092-0.172-0.229-0.332-0.398c0.584-0.619,1.395-1.43,2.274-2.332c1.919-1.955,4.194-4.263,5.521-5.875
			c1.324,1.61,3.6,3.92,5.52,5.875c0.96,0.973,1.816,1.852,2.411,2.479c-0.091,0.104-0.16,0.184-0.206,0.252
			C147.074,66.258,146.915,66.92,147.281,67.813z M140.115,78.406c0,0.08-0.092,0.229-0.252,0.434
			c-0.159-0.205-0.252-0.354-0.252-0.434c0-0.127,0.093-0.311,0.252-0.537C140.023,78.098,140.115,78.28,140.115,78.406z
			 M148.594,66.213l0.012-0.012c0.217,0.342,0.287,0.662,0.125,1.051c-0.045,0.115-0.113,0.229-0.193,0.365
			c-0.047-0.09-0.092-0.184-0.126-0.264C148.24,66.932,148.332,66.602,148.594,66.213z M149.555,65.412
			c-0.035-0.047-0.068-0.092-0.115-0.148c0.584-0.617,1.418-1.451,2.319-2.377c1.806-1.839,3.942-4.01,5.292-5.599
			c1.359,1.554,3.325,3.564,5.016,5.279c1.074,1.086,2.023,2.057,2.605,2.676c-0.021,0.02-0.033,0.045-0.045,0.066
			c-0.516,0.73-0.674,1.395-0.309,2.297c0.08,0.193,0.183,0.391,0.319,0.605c-0.319,0.377-0.731,0.813-1.245,1.313
			c-0.767,0.779-1.818,1.705-2.927,2.676c-1.303,1.154-2.674,2.363-3.702,3.439c-0.994-0.994-2.218-2.08-3.404-3.121
			c-1.099-0.971-2.16-1.906-2.926-2.674c-0.457-0.445-0.822-0.846-1.121-1.188c0.252-0.344,0.435-0.65,0.549-0.949
			C150.229,66.819,150.068,66.156,149.555,65.412z M156.65,54.9c0-0.069,0.047-0.171,0.138-0.297
			c0.251,0.285,0.388,0.503,0.388,0.605c0,0.057-0.046,0.148-0.137,0.285C156.788,55.185,156.65,54.98,156.65,54.9z M157.531,78.508
			c0,0.115-0.172,0.367-0.479,0.709c-0.469-0.516-0.743-0.879-0.743-1.029c0-0.172,0.17-0.455,0.469-0.811
			C157.245,77.881,157.531,78.28,157.531,78.508z M165.449,66.315c0.082,0.23,0.082,0.457-0.033,0.721v0.012
			C165.324,66.783,165.348,66.555,165.449,66.315z M166.285,65.264c0.582-0.629,1.496-1.555,2.515-2.594
			c1.999-2.034,4.388-4.457,5.69-6.08c1.313,1.623,3.645,3.988,5.6,5.978c0.926,0.947,1.76,1.793,2.354,2.41
			c-0.114,0.139-0.207,0.252-0.262,0.332c-0.515,0.729-0.675,1.395-0.309,2.297c0.113,0.273,0.286,0.57,0.514,0.902
			c-0.263,0.309-0.595,0.641-0.972,1.018c-0.767,0.777-1.815,1.703-2.927,2.674c-1.473,1.303-3.026,2.686-4.09,3.852
			c-1.063-1.143-2.561-2.479-4-3.748c-1.098-0.971-2.16-1.896-2.926-2.674c-0.548-0.549-0.981-1.006-1.313-1.406
			c0.171-0.262,0.297-0.502,0.388-0.721C166.913,66.625,166.764,65.973,166.285,65.264z M174.57,78.291
			c0,0.047-0.035,0.125-0.092,0.217c-0.104-0.146-0.148-0.252-0.148-0.32c0-0.066,0.021-0.158,0.08-0.273
			C174.512,78.074,174.57,78.199,174.57,78.291z M183.186,65.994c0.022-0.021,0.045-0.057,0.08-0.09
			c0.252,0.387,0.344,0.709,0.172,1.131c-0.058,0.148-0.138,0.297-0.252,0.469c-0.08-0.125-0.137-0.252-0.183-0.365
			C182.832,66.715,182.923,66.385,183.186,65.994z M187.951,72.303c-1.096-0.971-2.16-1.895-2.926-2.672
			c-0.422-0.414-0.766-0.779-1.063-1.109c0.285-0.379,0.479-0.709,0.605-1.018c0.365-0.902,0.205-1.564-0.31-2.309
			c-0.034-0.059-0.091-0.125-0.159-0.205c0.571-0.605,1.371-1.418,2.25-2.32c2.24-2.274,4.971-5.05,6.114-6.628
			c1.131,1.578,3.862,4.354,6.104,6.628c0.867,0.891,1.668,1.691,2.238,2.309c-0.067,0.08-0.138,0.158-0.171,0.217
			c-0.515,0.744-0.686,1.406-0.309,2.309c0.126,0.309,0.331,0.652,0.617,1.041c-0.286,0.32-0.641,0.674-1.053,1.086
			c-0.765,0.777-1.815,1.703-2.925,2.674c-1.68,1.496-3.474,3.072-4.502,4.33C191.425,75.377,189.643,73.801,187.951,72.303z
			 M201.642,65.893c0.045,0.035,0.068,0.08,0.092,0.104c0.263,0.389,0.354,0.721,0.183,1.143c-0.045,0.125-0.114,0.252-0.193,0.391
			c-0.114-0.186-0.207-0.344-0.263-0.492C201.276,66.614,201.379,66.28,201.642,65.893z M210.224,78.188
			c0-0.102,0.069-0.238,0.171-0.408c0.114,0.17,0.173,0.309,0.173,0.408c0,0.068-0.059,0.184-0.173,0.346
			C210.293,78.371,210.224,78.256,210.224,78.188z M219.32,66.166c0.137,0.287,0.148,0.549,0.022,0.869
			c-0.022,0.059-0.045,0.113-0.079,0.172c-0.012-0.023-0.012-0.047-0.022-0.068C219.091,66.783,219.138,66.487,219.32,66.166z
			 M215.995,62.569c1.018,1.039,1.941,1.977,2.524,2.604c-0.046,0.047-0.067,0.092-0.103,0.139
			c-0.514,0.729-0.674,1.395-0.309,2.297c0.092,0.217,0.218,0.445,0.378,0.686c-0.311,0.354-0.698,0.766-1.167,1.234
			c-0.767,0.777-1.828,1.703-2.926,2.674c-1.439,1.27-2.937,2.596-4,3.736c-1.051-1.143-2.56-2.469-3.987-3.736
			c-1.108-0.971-2.16-1.896-2.926-2.674c-0.377-0.365-0.696-0.697-0.959-0.994c0.239-0.344,0.411-0.641,0.525-0.926
			c0.366-0.902,0.206-1.566-0.309-2.297c-0.058-0.092-0.148-0.207-0.274-0.344c0.595-0.617,1.418-1.463,2.343-2.398
			c1.943-1.989,4.273-4.344,5.588-5.965C211.721,58.224,214.041,60.579,215.995,62.569z M210.235,35.301l0.022-0.022
			c0.058-0.035,0.091-0.068,0.137-0.104c0.046,0.035,0.092,0.068,0.138,0.104l0.035,0.022c0.479,0.4,5.851,4.788,7.965,6.972
			c-0.206,0.251-0.366,0.469-0.436,0.616c-0.365,0.847-0.171,1.51,0.332,2.184c-0.137,0.147-0.286,0.296-0.445,0.445
			c-0.445,0.445-0.948,0.938-1.474,1.531c-0.641,0.73-1.76,1.793-2.903,2.892c-1.177,1.108-2.376,2.251-3.211,3.2
			c-0.822-0.949-2.022-2.092-3.198-3.2c-1.154-1.098-2.264-2.16-2.914-2.892c-0.515-0.594-1.018-1.086-1.463-1.531l-0.24-0.24
			c0.617-0.754,0.88-1.463,0.479-2.39c-0.092-0.193-0.298-0.468-0.605-0.811C204.693,39.838,209.766,35.69,210.235,35.301z
			 M201.436,43.277c0.034-0.08,0.114-0.194,0.206-0.32c0.149,0.172,0.251,0.32,0.296,0.424c0.126,0.309,0.035,0.616-0.216,0.982
			C201.424,43.963,201.287,43.609,201.436,43.277z M201.413,46.5c0.114-0.114,0.217-0.218,0.332-0.32l0.216,0.206
			c0.435,0.436,0.915,0.914,1.407,1.463c0.685,0.789,1.815,1.862,2.981,2.972c1.28,1.211,2.595,2.468,3.313,3.268
			c-0.206,0.32-0.32,0.596-0.32,0.813c0,0.16,0.126,0.423,0.354,0.766c-1.098,1.291-3.657,3.908-5.771,6.045
			c-0.88,0.903-1.69,1.725-2.286,2.354c-0.595-0.617-1.359-1.395-2.193-2.252c-2.754-2.799-6.296-6.398-6.296-6.81
			c0-0.4,1.976-2.274,3.873-4.081c1.166-1.097,2.298-2.183,2.982-2.971C200.499,47.402,200.979,46.923,201.413,46.5z
			 M192.316,32.158c0.035-0.091,0.082-0.194,0.149-0.309c0.058,0.114,0.103,0.218,0.138,0.309c0.104,0.309,0.022,0.629-0.138,0.925
			C192.294,32.787,192.213,32.467,192.316,32.158z M184.581,42.786c-0.081-0.172-0.252-0.412-0.492-0.697
			c2.286-2.251,7.257-6.331,7.69-6.685c0.092-0.058,0.365-0.24,0.687-0.515c0.31,0.274,0.583,0.457,0.675,0.515
			c0.434,0.354,5.394,4.411,7.679,6.674c-0.251,0.296-0.424,0.537-0.504,0.708c-0.423,0.971-0.103,1.703,0.584,2.502
			c-0.114,0.104-0.229,0.217-0.345,0.332c-0.444,0.445-0.946,0.938-1.462,1.531c-0.65,0.743-1.771,1.794-2.914,2.892
			c-1.452,1.371-2.948,2.788-3.714,3.839c-0.777-1.051-2.273-2.468-3.727-3.839c-1.143-1.098-2.262-2.147-2.914-2.892
			c-0.514-0.594-1.016-1.086-1.463-1.531c-0.125-0.114-0.239-0.229-0.354-0.343C184.695,44.477,185.004,43.746,184.581,42.786z
			 M184.911,47.951c0.687,0.789,1.829,1.874,2.983,2.971c1.896,1.806,3.873,3.681,3.873,4.081c0,0.411-3.531,4.011-6.285,6.81
			c-0.846,0.858-1.623,1.647-2.217,2.276c-0.594-0.641-1.406-1.465-2.297-2.378c-2.126-2.16-4.708-4.788-5.794-6.067
			c0.172-0.275,0.274-0.492,0.274-0.64c0-0.218-0.113-0.479-0.319-0.801c0.696-0.8,2.079-2.114,3.417-3.382
			c1.166-1.109,2.297-2.184,2.982-2.972c0.492-0.549,0.971-1.027,1.406-1.463l0.238-0.229c0.104,0.114,0.217,0.229,0.331,0.343
			C183.941,46.923,184.432,47.402,184.911,47.951z M182.99,43.381c0.047-0.104,0.138-0.239,0.274-0.4
			c0.093,0.113,0.161,0.217,0.195,0.297c0.137,0.332,0.022,0.675-0.274,1.063C182.945,43.985,182.854,43.677,182.99,43.381z
			 M174.958,31.941c0.035,0.08,0.067,0.148,0.091,0.217c0.161,0.468-0.102,0.949-0.434,1.337
			C174.488,33.152,174.523,32.661,174.958,31.941z M166.559,42.786c-0.045-0.114-0.148-0.263-0.273-0.435
			c2.137-2.193,7.496-6.582,7.941-6.948c0.045-0.035,0.16-0.104,0.297-0.206c0.033,0.021,0.068,0.045,0.104,0.08l0.034,0.022
			c0.469,0.39,5.565,4.561,7.794,6.788c-0.297,0.332-0.503,0.617-0.596,0.8c-0.399,0.927-0.137,1.623,0.48,2.377
			c-0.091,0.08-0.172,0.16-0.263,0.252c-0.445,0.445-0.949,0.938-1.462,1.531c-0.651,0.73-1.771,1.793-2.916,2.892
			c-1.221,1.153-2.467,2.343-3.301,3.313c-0.824-0.949-2.035-2.091-3.211-3.211c-1.144-1.098-2.265-2.147-2.916-2.892
			c-0.514-0.595-1.017-1.086-1.461-1.531c-0.219-0.217-0.424-0.411-0.606-0.605C166.73,44.318,166.936,43.643,166.559,42.786z
			 M165.439,43.381c0-0.012,0.01-0.035,0.022-0.046c0.056,0.184,0.045,0.377-0.046,0.594
			C165.359,43.734,165.359,43.551,165.439,43.381z M165.381,45.928c0.184,0.184,0.366,0.365,0.571,0.571
			c0.435,0.423,0.926,0.902,1.405,1.451c0.687,0.789,1.816,1.874,2.983,2.971c1.292,1.234,2.628,2.492,3.337,3.303
			c-0.148,0.263-0.229,0.491-0.229,0.675c0,0.16,0.115,0.423,0.33,0.754c-1.027,1.245-3.678,3.953-5.85,6.158
			c-0.961,0.984-1.828,1.863-2.445,2.515c-0.616-0.662-1.53-1.588-2.537-2.617c-1.782-1.805-3.885-3.941-5.153-5.348
			c0.39-0.525,0.617-0.926,0.617-1.154c0-0.354-0.331-0.88-0.847-1.497c0.756-0.788,1.875-1.851,2.961-2.891
			c1.164-1.109,2.297-2.184,2.992-2.971c0.48-0.55,0.961-1.028,1.396-1.464C165.085,46.226,165.232,46.077,165.381,45.928z
			 M157.085,31.701c0.092-0.138,0.185-0.263,0.263-0.389c0.332,0.411,0.572,0.789,0.663,1.052c0.218,0.662-0.377,1.337-0.88,1.771
			C156.697,33.816,156.046,33.256,157.085,31.701z M149.863,43.004c-0.068-0.161-0.217-0.377-0.435-0.629
			c2.159-2.159,6.902-6.056,7.679-6.685c1.476,1.211,5.795,4.8,7.578,6.65c-0.183,0.229-0.309,0.411-0.378,0.548
			c-0.354,0.813-0.183,1.451,0.274,2.114c-0.16,0.16-0.332,0.332-0.526,0.515c-0.444,0.445-0.948,0.938-1.462,1.531
			c-0.65,0.73-1.76,1.793-2.914,2.892c-1.04,0.982-2.104,2-2.914,2.88c-0.754-0.8-1.691-1.691-2.617-2.571
			c-1.143-1.086-2.263-2.147-2.914-2.891c-0.515-0.583-1.018-1.085-1.463-1.521c-0.148-0.147-0.285-0.285-0.412-0.411
			C150,44.65,150.273,43.941,149.863,43.004z M148.4,43.597c0.035-0.092,0.103-0.205,0.205-0.332
			c0.068,0.081,0.114,0.16,0.137,0.219c0.138,0.308,0.046,0.628-0.205,0.981C148.343,44.146,148.275,43.871,148.4,43.597z
			 M148.229,46.604c0.104-0.104,0.194-0.195,0.287-0.287c0.125,0.126,0.262,0.252,0.399,0.389c0.435,0.434,0.925,0.914,1.405,1.462
			c0.686,0.789,1.83,1.863,2.982,2.971c0.973,0.914,1.954,1.852,2.686,2.596c-0.354,0.479-0.56,0.879-0.56,1.165
			c0,0.263,0.332,0.8,0.868,1.484c-1.223,1.384-3.496,3.702-5.404,5.646c-0.88,0.892-1.668,1.691-2.275,2.332
			c-0.605-0.652-1.439-1.498-2.364-2.435c-2.058-2.092-4.538-4.628-5.681-5.954c0.274-0.389,0.423-0.686,0.423-0.867
			c0-0.229-0.148-0.537-0.388-0.903c0.742-0.8,1.998-2,3.232-3.166c1.154-1.108,2.298-2.183,2.982-2.971
			C147.303,47.506,147.795,47.026,148.229,46.604z M139.863,33.072c0.035,0.193,0.035,0.366,0,0.503
			C139.83,33.438,139.83,33.267,139.863,33.072z M139.773,35.518l0.035-0.023c0.021-0.022,0.032-0.034,0.057-0.046
			c0.022,0.012,0.033,0.022,0.058,0.046l0.033,0.023c0.469,0.388,5.657,4.628,7.851,6.845c-0.262,0.309-0.457,0.56-0.537,0.743
			c-0.389,0.891-0.148,1.577,0.422,2.309c-0.103,0.104-0.205,0.206-0.319,0.32c-0.445,0.435-0.949,0.925-1.474,1.52
			c-0.642,0.743-1.761,1.806-2.903,2.892c-1.144,1.086-2.31,2.193-3.132,3.119c-0.822-0.926-1.987-2.033-3.131-3.119
			s-2.263-2.148-2.901-2.892c-0.527-0.595-1.029-1.085-1.476-1.52l-0.17-0.171c0.661-0.789,0.959-1.51,0.536-2.458
			c-0.091-0.206-0.319-0.515-0.663-0.892C134.333,39.963,139.304,35.896,139.773,35.518z M130.984,43.484
			c0.035-0.092,0.137-0.229,0.263-0.39c0.183,0.206,0.297,0.377,0.354,0.503c0.148,0.32,0.022,0.663-0.275,1.053
			C130.984,44.214,130.824,43.848,130.984,43.484z M131.087,46.706c0.08-0.092,0.171-0.172,0.251-0.251l0.16,0.149
			c0.434,0.422,0.926,0.901,1.406,1.462c0.686,0.788,1.828,1.862,2.981,2.971c1.234,1.166,2.491,2.366,3.233,3.166
			c-0.239,0.366-0.389,0.675-0.389,0.903c0,0.182,0.149,0.479,0.422,0.867c-1.143,1.326-3.621,3.862-5.678,5.954
			c-0.857,0.868-1.636,1.657-2.24,2.284c-0.572-0.604-1.313-1.359-2.125-2.181c-2.596-2.641-5.875-5.978-6.252-6.708
			c0-0.046,0.012-0.08,0.012-0.114c0-0.035,0-0.08-0.012-0.125c0.287-0.572,2.092-2.297,3.83-3.943
			c1.164-1.107,2.297-2.183,2.993-2.971C130.162,47.62,130.652,47.139,131.087,46.706z M121.99,32.364
			c0.046-0.138,0.127-0.297,0.24-0.469c0.114,0.171,0.194,0.331,0.239,0.469c0.126,0.377-0.011,0.754-0.239,1.097
			C122.003,33.118,121.865,32.741,121.99,32.364z M114.447,43.004c-0.08-0.171-0.25-0.412-0.491-0.697
			c2.286-2.262,7.269-6.33,7.69-6.686c0.092-0.057,0.31-0.206,0.584-0.434c0.273,0.229,0.49,0.377,0.582,0.434
			c0.424,0.343,5.291,4.332,7.6,6.606c-0.273,0.319-0.469,0.582-0.549,0.776c-0.444,0.994-0.09,1.737,0.629,2.561
			c-0.08,0.091-0.172,0.182-0.264,0.272c-0.457,0.436-0.949,0.938-1.474,1.521c-0.642,0.743-1.76,1.805-2.915,2.891
			c-1.383,1.325-2.811,2.675-3.611,3.714c-0.8-1.039-2.229-2.389-3.623-3.714c-1.143-1.086-2.263-2.148-2.902-2.891
			c-0.525-0.583-1.028-1.085-1.475-1.521c-0.113-0.125-0.24-0.24-0.354-0.354C114.563,44.694,114.871,43.963,114.447,43.004z
			 M112.859,43.597c0.045-0.104,0.138-0.239,0.274-0.411c0.093,0.126,0.16,0.218,0.194,0.298c0.138,0.331,0.023,0.674-0.274,1.063
			C112.814,44.203,112.723,43.895,112.859,43.597z M112.802,46.604l0.24-0.229c0.103,0.104,0.217,0.218,0.332,0.332
			c0.435,0.434,0.925,0.914,1.405,1.462c0.697,0.789,1.828,1.863,2.994,2.971c1.736,1.646,3.541,3.371,3.828,3.943
			c-0.012,0.045-0.012,0.091-0.012,0.125s0,0.068,0.012,0.114c-0.389,0.73-3.668,4.067-6.25,6.708
			c-0.847,0.857-1.623,1.646-2.207,2.263c-0.604-0.641-1.416-1.465-2.308-2.366c-2.067-2.103-4.583-4.662-5.703-5.978
			c0.343-0.479,0.548-0.845,0.548-1.051c0-0.229-0.126-0.515-0.354-0.847c0.755-0.812,1.932-1.931,3.086-3.017
			c1.166-1.108,2.298-2.183,2.982-2.971C111.888,47.506,112.367,47.026,112.802,46.604z M104.529,32.753
			c0.092,0.39,0.045,0.663-0.068,0.879C104.393,33.403,104.404,33.118,104.529,32.753z M104.37,35.381
			c0.045,0.034,0.079,0.068,0.137,0.114l0.022,0.023c0.469,0.377,5.565,4.548,7.793,6.775c-0.297,0.343-0.502,0.618-0.582,0.813
			c-0.4,0.914-0.148,1.623,0.469,2.365c-0.08,0.093-0.171,0.172-0.264,0.264c-0.444,0.435-0.948,0.925-1.463,1.52
			c-0.65,0.743-1.76,1.806-2.914,2.892c-1.073,1.017-2.158,2.057-2.981,2.959c-0.823-0.949-2-2.068-3.166-3.166
			c-1.144-1.098-2.263-2.16-2.901-2.892c-0.526-0.594-1.029-1.086-1.476-1.531c-0.147-0.149-0.296-0.298-0.435-0.435
			c0.504-0.686,0.697-1.349,0.332-2.194c-0.067-0.159-0.229-0.365-0.445-0.629C98.518,40.18,103.479,36.112,104.37,35.381z
			 M95.672,43.277c0.012-0.022,0.023-0.045,0.035-0.08c0.045,0.067,0.091,0.137,0.113,0.184c0.092,0.229,0.07,0.457-0.045,0.696
			C95.604,43.792,95.559,43.528,95.672,43.277z M95.798,45.997c0.126,0.126,0.251,0.263,0.39,0.389
			c0.434,0.436,0.926,0.914,1.405,1.464c0.685,0.788,1.828,1.861,2.993,2.971c1.234,1.177,2.516,2.388,3.245,3.199
			c-0.331,0.445-0.515,0.812-0.515,1.086c0,0.182,0.139,0.457,0.377,0.821c-1.188,1.36-3.564,3.783-5.529,5.782
			c-0.973,0.995-1.852,1.885-2.469,2.538c-0.606-0.641-1.451-1.498-2.377-2.436c-2.754-2.799-6.285-6.398-6.285-6.81
			c0-0.4,1.978-2.274,3.875-4.081c1.164-1.097,2.297-2.183,2.981-2.971c0.479-0.549,0.972-1.028,1.405-1.451
			C95.467,46.329,95.638,46.157,95.798,45.997z M86.199,32.158c0.033-0.091,0.068-0.184,0.125-0.285
			c0.058,0.104,0.104,0.194,0.127,0.285c0.103,0.309,0.033,0.617-0.127,0.902C86.176,32.776,86.096,32.467,86.199,32.158z
			 M78.097,42.786c-0.057-0.137-0.171-0.309-0.331-0.503c2.184-2.217,7.428-6.514,7.863-6.879c0.104-0.058,0.376-0.24,0.695-0.526
			c0.332,0.286,0.605,0.469,0.697,0.526c0.445,0.366,5.68,4.65,7.875,6.868c-0.172,0.206-0.287,0.377-0.344,0.515
			c-0.4,0.891-0.16,1.577,0.411,2.309c-0.159,0.172-0.331,0.344-0.524,0.525c-0.446,0.445-0.949,0.938-1.463,1.531
			c-0.652,0.743-1.771,1.794-2.914,2.892c-1.463,1.383-2.959,2.812-3.738,3.852c-0.766-1.04-2.273-2.469-3.725-3.852
			c-1.154-1.098-2.264-2.147-2.914-2.892c-0.515-0.594-1.018-1.086-1.463-1.531c-0.193-0.183-0.377-0.366-0.537-0.525
			C78.257,44.363,78.486,43.677,78.097,42.786z M76.84,43.381c0.023-0.046,0.057-0.104,0.104-0.172
			c0.012,0.023,0.022,0.046,0.035,0.068c0.113,0.251,0.067,0.514-0.093,0.789C76.771,43.826,76.749,43.597,76.84,43.381z
			 M76.852,45.997c0.16,0.16,0.332,0.32,0.514,0.503c0.435,0.423,0.914,0.902,1.395,1.451c0.697,0.789,1.829,1.874,2.994,2.971
			c1.896,1.806,3.875,3.681,3.875,4.081c0,0.411-3.544,4.011-6.298,6.81c-0.925,0.95-1.759,1.807-2.376,2.446
			c-0.617-0.65-1.497-1.553-2.469-2.548c-2.113-2.137-4.674-4.754-5.76-6.045c0.217-0.343,0.344-0.604,0.344-0.766
			c0-0.218-0.114-0.491-0.32-0.813c0.72-0.8,2.035-2.057,3.314-3.268c1.164-1.109,2.297-2.184,2.994-2.972
			c0.479-0.549,0.971-1.027,1.404-1.463C76.6,46.249,76.727,46.123,76.852,45.997z M67.846,35.301l0.035-0.022
			c0.045-0.035,0.091-0.068,0.137-0.104c0.045,0.035,0.092,0.068,0.137,0.104l0.022,0.022c0.492,0.4,5.862,4.788,7.978,6.972
			c-0.217,0.251-0.366,0.469-0.435,0.616c-0.366,0.847-0.184,1.51,0.32,2.184c-0.138,0.147-0.287,0.296-0.446,0.445
			c-0.445,0.445-0.949,0.938-1.463,1.531c-0.65,0.73-1.76,1.793-2.914,2.892c-1.166,1.108-2.377,2.251-3.199,3.2
			c-0.824-0.949-2.035-2.092-3.212-3.2c-1.144-1.098-2.264-2.16-2.903-2.892c-0.524-0.594-1.027-1.086-1.475-1.531l-0.238-0.24
			c0.615-0.754,0.891-1.463,0.479-2.39c-0.08-0.193-0.297-0.468-0.594-0.811C62.303,39.838,67.378,35.69,67.846,35.301z
			 M59.059,43.277c0.033-0.08,0.104-0.194,0.205-0.32c0.137,0.172,0.24,0.32,0.285,0.424c0.139,0.309,0.046,0.616-0.206,0.982
			C59.036,43.963,58.91,43.609,59.059,43.277z M59.036,46.5c0.114-0.114,0.217-0.218,0.319-0.32l0.217,0.206
			c0.436,0.436,0.927,0.914,1.406,1.463c0.697,0.789,1.828,1.862,2.994,2.972c1.268,1.211,2.594,2.468,3.313,3.268
			c-0.206,0.32-0.32,0.596-0.32,0.813c0,0.16,0.126,0.423,0.343,0.766c-1.086,1.291-3.656,3.908-5.76,6.045
			c-0.891,0.903-1.691,1.725-2.297,2.354c-0.583-0.617-1.359-1.395-2.193-2.252c-2.755-2.799-6.297-6.398-6.297-6.81
			c0-0.4,1.988-2.274,3.874-4.081c1.166-1.097,2.298-2.183,2.994-2.971C58.109,47.402,58.602,46.923,59.036,46.5z M49.939,32.158
			c0.033-0.091,0.08-0.194,0.138-0.309c0.067,0.114,0.114,0.218,0.137,0.309c0.114,0.309,0.034,0.629-0.137,0.925
			C49.916,32.787,49.837,32.467,49.939,32.158z M42.191,42.786c-0.068-0.172-0.24-0.412-0.479-0.697
			c2.273-2.251,7.256-6.331,7.681-6.685c0.103-0.058,0.377-0.24,0.686-0.515c0.318,0.274,0.594,0.457,0.686,0.515
			c0.422,0.354,5.383,4.411,7.667,6.674c-0.239,0.296-0.422,0.537-0.491,0.708c-0.435,0.971-0.115,1.703,0.57,2.502
			c-0.104,0.104-0.217,0.217-0.331,0.332c-0.446,0.445-0.948,0.938-1.474,1.531c-0.641,0.743-1.76,1.794-2.903,2.892
			c-1.45,1.371-2.948,2.788-3.725,3.839c-0.778-1.051-2.265-2.468-3.714-3.839c-1.154-1.098-2.263-2.147-2.915-2.892
			c-0.514-0.594-1.017-1.086-1.462-1.531c-0.126-0.114-0.24-0.229-0.354-0.343C42.305,44.477,42.614,43.746,42.191,42.786z
			 M40.603,43.381c0.045-0.104,0.137-0.239,0.275-0.4c0.091,0.113,0.159,0.217,0.194,0.297c0.148,0.332,0.023,0.675-0.275,1.063
			C40.568,43.985,40.477,43.677,40.603,43.381z M40.557,46.385l0.228-0.229c0.115,0.114,0.218,0.229,0.344,0.343
			c0.435,0.423,0.914,0.902,1.395,1.451c0.696,0.789,1.828,1.874,2.993,2.971c1.897,1.806,3.875,3.681,3.875,4.081
			c0,0.411-3.545,4.011-6.299,6.81c-0.845,0.858-1.611,1.647-2.205,2.276c-0.605-0.641-1.417-1.465-2.309-2.378
			c-2.125-2.16-4.708-4.788-5.782-6.068c0.17-0.274,0.262-0.491,0.262-0.639c0-0.218-0.114-0.479-0.309-0.801
			c0.686-0.8,2.068-2.114,3.406-3.382c1.165-1.109,2.297-2.184,2.994-2.972C39.631,47.3,40.123,46.82,40.557,46.385z M32.569,31.941
			c0.046,0.08,0.068,0.148,0.091,0.217c0.161,0.468-0.091,0.949-0.434,1.337C32.101,33.152,32.134,32.661,32.569,31.941z
			 M24.181,42.786c-0.058-0.114-0.149-0.263-0.286-0.435c2.138-2.193,7.497-6.582,7.942-6.948c0.058-0.035,0.172-0.104,0.309-0.206
			c0.034,0.021,0.069,0.045,0.103,0.08l0.035,0.022c0.468,0.39,5.565,4.561,7.793,6.788c-0.309,0.332-0.514,0.617-0.594,0.8
			c-0.4,0.927-0.137,1.623,0.469,2.377c-0.081,0.08-0.172,0.16-0.252,0.252c-0.445,0.445-0.948,0.938-1.475,1.531
			c-0.64,0.73-1.759,1.793-2.902,2.892c-1.223,1.153-2.48,2.343-3.302,3.313c-0.834-0.949-2.035-2.091-3.212-3.211
			c-1.154-1.098-2.263-2.147-2.914-2.892c-0.515-0.595-1.017-1.086-1.463-1.531c-0.228-0.217-0.435-0.411-0.617-0.605
			C24.352,44.318,24.546,43.643,24.181,42.786z M23.049,43.381c0.012-0.012,0.012-0.035,0.023-0.046
			c0.068,0.184,0.045,0.377-0.034,0.594C22.969,43.734,22.969,43.551,23.049,43.381z M23.004,45.928
			c0.171,0.184,0.366,0.365,0.56,0.571c0.434,0.423,0.926,0.902,1.406,1.451c0.697,0.789,1.829,1.874,2.994,2.971
			c1.291,1.234,2.617,2.492,3.337,3.303c-0.148,0.263-0.24,0.491-0.24,0.675c0,0.16,0.126,0.423,0.343,0.754
			c-1.028,1.245-3.691,3.953-5.862,6.158c-0.96,0.984-1.829,1.863-2.435,2.515c-0.627-0.662-1.532-1.588-2.548-2.617
			c-2.045-2.091-4.536-4.617-5.668-5.941c0.263-0.39,0.412-0.687,0.412-0.869c0-0.24-0.138-0.549-0.389-0.903
			c0.744-0.812,2-2.011,3.234-3.176c1.154-1.109,2.297-2.184,2.982-2.971c0.48-0.55,0.972-1.028,1.406-1.464
			C22.696,46.226,22.855,46.077,23.004,45.928z M14.171,32.867c0.034,0.194,0.034,0.354,0,0.503
			C14.136,33.22,14.136,33.061,14.171,32.867z M11.039,49.94c-1.143-1.098-2.262-2.16-2.903-2.892
			c-0.525-0.594-1.028-1.086-1.474-1.531c-0.183-0.183-0.354-0.344-0.503-0.503c0.468-0.662,0.628-1.303,0.274-2.126
			c-0.057-0.137-0.194-0.331-0.377-0.56c2.068-2.16,7.532-6.628,8.022-7.028l0.034-0.022c0.023-0.012,0.035-0.035,0.058-0.045
			c0.022,0.011,0.034,0.033,0.057,0.045l0.035,0.022c0.492,0.4,5.977,4.892,8.045,7.04c-0.182,0.229-0.32,0.411-0.377,0.548
			c-0.354,0.813-0.194,1.451,0.263,2.114c-0.148,0.16-0.331,0.332-0.514,0.515c-0.445,0.445-0.948,0.938-1.463,1.531
			c-0.651,0.73-1.771,1.793-2.914,2.892c-1.143,1.073-2.308,2.184-3.131,3.12C13.348,52.123,12.182,51.013,11.039,49.94z
			 M5.326,67.082l-0.023-0.047C5.189,66.76,5.189,66.52,5.28,66.28C5.394,66.543,5.417,66.783,5.326,67.082z M10.251,72.201
			c-1.098-0.973-2.16-1.896-2.926-2.676c-0.502-0.502-0.902-0.926-1.222-1.303c0.137-0.217,0.251-0.424,0.32-0.617
			c0.377-0.902,0.205-1.566-0.309-2.297c-0.011-0.021-0.035-0.047-0.046-0.08c0.583-0.617,1.532-1.588,2.583-2.662
			c1.92-1.942,4.193-4.263,5.52-5.874c1.337,1.61,3.6,3.932,5.52,5.874c1.063,1.086,2.011,2.057,2.594,2.676
			c-0.012,0.02-0.022,0.045-0.034,0.066c-0.514,0.73-0.686,1.395-0.32,2.297c0.08,0.193,0.184,0.391,0.32,0.605
			c-0.32,0.377-0.72,0.813-1.234,1.313c-0.765,0.779-1.828,1.705-2.925,2.676c-1.395,1.232-2.868,2.537-3.92,3.656
			C13.119,74.737,11.657,73.434,10.251,72.201z M14.422,78.188c0,0.08-0.093,0.23-0.252,0.447c-0.16-0.219-0.251-0.367-0.251-0.447
			c0-0.125,0.091-0.307,0.251-0.523C14.33,77.881,14.422,78.063,14.422,78.188z M5.337,89.914c-0.103-0.15-0.171-0.266-0.183-0.344
			c-0.012-0.035,0.023-0.104,0.103-0.193c0.138,0.158,0.206,0.264,0.195,0.297C5.44,89.731,5.394,89.811,5.337,89.914z
			 M12.331,97.297c-1.954-1.955-4.766-4.768-6.228-6.436c0.308-0.4,0.491-0.721,0.537-0.914c0.069-0.299-0.183-0.775-0.651-1.395
			c0.937-0.973,2.514-2.502,4.114-4.057h0.011c1.486-1.439,2.994-2.904,4.057-4.08c1.063,1.176,2.571,2.641,4.068,4.08
			c1.6,1.555,3.199,3.096,4.125,4.066c-0.469,0.607-0.708,1.098-0.64,1.385c0.046,0.193,0.228,0.502,0.525,0.9
			c-1.451,1.656-4.273,4.492-6.239,6.447c-0.8,0.811-1.463,1.473-1.84,1.861C13.793,98.77,13.131,98.108,12.331,97.297z
			 M14.205,102.403c-0.012,0.014-0.022,0.023-0.034,0.047c-0.011-0.023-0.023-0.033-0.035-0.047
			c-0.445-0.561-0.468-0.832,0.035-1.439C14.673,101.571,14.65,101.844,14.205,102.403z M23.039,113.922
			c-0.16-0.457-0.092-0.811,0.034-1.154C23.175,113.112,23.221,113.465,23.039,113.922z M27.941,106.278
			c-1.76,1.6-3.668,3.324-4.834,4.516c-1.154-1.189-3.12-2.973-4.948-4.617c-1.21-1.086-2.354-2.127-3.12-2.855
			c0.046-0.059,0.092-0.105,0.125-0.15c1.086-1.359,1.041-1.807-0.148-3.119l0.045-0.047c0.377-0.387,1.029-1.051,1.817-1.84
			c1.886-1.885,4.526-4.535,6.125-6.387c1.588,1.852,4.297,4.57,6.217,6.488c0.8,0.801,1.451,1.453,1.817,1.844l0.058,0.055
			l0.08,0.08c-1.017,1.166-1.005,1.635,0.023,2.926c0.012,0.023,0.034,0.045,0.057,0.068
			C30.489,103.981,29.254,105.102,27.941,106.278z M32.101,102.336c-0.343-0.447-0.389-0.709-0.08-1.154
			C32.386,101.651,32.386,101.912,32.101,102.336z M40.808,114.379c-0.48-0.799-0.308-1.289-0.114-1.805l0.011-0.035
			c0.023-0.057,0.08-0.137,0.172-0.25c0.057,0.057,0.08,0.113,0.091,0.146l0.012,0.023
			C41.186,113.008,41.369,113.524,40.808,114.379z M45.494,106.278c-1.646,1.498-3.429,3.107-4.605,4.273
			c-1.177-1.178-3.005-2.834-4.708-4.377c-1.257-1.131-2.445-2.205-3.223-2.949c1.028-1.289,0.994-1.748-0.103-2.98l0.171-0.195
			l0.057-0.045c0.377-0.389,1.029-1.053,1.818-1.84c1.793-1.795,4.284-4.285,5.896-6.113c1.601,1.84,4.148,4.387,5.977,6.215
			c0.8,0.801,1.453,1.453,1.83,1.844l0.045,0.055c0.25,0.252,0.457,0.469,0.627,0.664c-0.514,0.695-0.502,1.166,0.022,1.93
			C48.671,103.422,47.139,104.793,45.494,106.278z M50.625,99.319c-0.206,0.205-0.377,0.398-0.548,0.57
			c-0.161-0.172-0.345-0.365-0.538-0.57l-0.057-0.059c-0.367-0.389-1.028-1.051-1.84-1.852c-1.886-1.896-4.583-4.594-6.069-6.273
			c0.469-0.582,0.777-1.041,0.834-1.291c0.069-0.32-0.229-0.855-0.765-1.531c0.949-0.973,2.366-2.332,3.782-3.715
			c1.794-1.736,3.612-3.482,4.651-4.764c1.041,1.279,2.857,3.027,4.65,4.764h0.012c1.406,1.371,2.812,2.732,3.76,3.691
			c-0.549,0.697-0.846,1.232-0.777,1.555c0.059,0.25,0.377,0.719,0.846,1.303c-1.484,1.682-4.17,4.365-6.057,6.264
			c-0.8,0.801-1.463,1.463-1.84,1.852L50.625,99.319z M59.333,114.403c-0.571-0.867-0.39-1.395-0.183-1.941l0.012-0.023
			c0.012-0.045,0.045-0.092,0.103-0.158c0.103,0.113,0.171,0.205,0.183,0.262l0.012,0.035
			C59.652,113.102,59.836,113.592,59.333,114.403z M67.104,103.17c0.012,0.023,0.033,0.045,0.057,0.068
			c-0.777,0.73-1.954,1.807-3.211,2.938c-1.702,1.541-3.521,3.188-4.696,4.365c-1.179-1.166-2.949-2.768-4.595-4.264
			c-1.646-1.484-3.164-2.855-3.793-3.521c0.514-0.764,0.525-1.232,0.021-1.93c0.172-0.195,0.377-0.412,0.617-0.664l0.059-0.057
			c0.377-0.389,1.027-1.041,1.816-1.842c1.828-1.828,4.365-4.365,5.977-6.205c1.611,1.83,4.08,4.311,5.875,6.104
			c0.789,0.789,1.439,1.453,1.816,1.84l0.057,0.047l0.069,0.092C66.064,101.387,66.041,101.832,67.104,103.17z M68.018,102.346
			c-0.389-0.49-0.412-0.764,0-1.277C68.418,101.582,68.395,101.856,68.018,102.346z M76.885,114.084
			c-0.273-0.631-0.125-1.053,0.046-1.51C77.08,113.02,77.193,113.453,76.885,114.084z M81.73,106.278
			c-1.736,1.576-3.6,3.256-4.766,4.445c-1.166-1.189-3.098-2.926-4.88-4.549c-1.257-1.131-2.445-2.205-3.211-2.938
			c0.022-0.023,0.046-0.045,0.058-0.068c1.063-1.338,1.04-1.783-0.08-3.027l0.08-0.092l0.057-0.047
			c0.367-0.387,1.019-1.051,1.817-1.84c1.851-1.861,4.457-4.467,6.058-6.309c1.6,1.854,4.263,4.516,6.146,6.41
			c0.801,0.801,1.452,1.453,1.829,1.842l0.045,0.057c0.251,0.264,0.47,0.48,0.64,0.676c-0.49,0.686-0.479,1.154,0.022,1.906
			C84.931,103.399,83.4,104.781,81.73,106.278z M86.884,99.319c-0.205,0.205-0.388,0.41-0.56,0.582
			c-0.16-0.172-0.354-0.377-0.549-0.582l-0.058-0.059c-0.366-0.389-1.04-1.051-1.84-1.852c-1.965-1.977-4.8-4.811-6.251-6.479
			c0.377-0.48,0.629-0.855,0.674-1.086c0.069-0.285-0.171-0.754-0.605-1.35c0.949-0.971,2.445-2.422,3.966-3.896
			c1.805-1.736,3.622-3.508,4.663-4.775c1.039,1.27,2.867,3.039,4.674,4.775c1.508,1.465,3.005,2.914,3.953,3.896
			c-0.445,0.596-0.686,1.063-0.616,1.35c0.058,0.23,0.296,0.605,0.687,1.098c-1.453,1.656-4.287,4.49-6.24,6.469
			c-0.813,0.801-1.475,1.463-1.84,1.852L86.884,99.319z M95.764,114.094c-0.32-0.648-0.193-1.086-0.046-1.531l0.013,0.014
			C95.891,113.02,96.05,113.453,95.764,114.094z M103.443,103.375c0.022,0.035,0.058,0.057,0.08,0.092
			c-0.765,0.719-1.828,1.691-2.959,2.709c-1.783,1.611-3.703,3.357-4.869,4.547c-1.176-1.188-3.039-2.867-4.776-4.443
			c-1.657-1.498-3.188-2.881-3.806-3.533c0.502-0.752,0.515-1.221,0.022-1.906c0.171-0.184,0.377-0.412,0.64-0.676l0.045-0.055
			c0.377-0.391,1.029-1.043,1.817-1.844c1.896-1.885,4.548-4.559,6.147-6.396c1.6,1.84,4.205,4.434,6.058,6.295
			c0.788,0.789,1.438,1.453,1.815,1.84l0.047,0.047l0.045,0.045C102.416,101.535,102.324,101.957,103.443,103.375z M104.587,102.403
			c-0.046,0.059-0.103,0.127-0.183,0.207c-0.479-0.605-0.457-0.869,0.183-1.6C105.055,101.594,105.021,101.856,104.587,102.403z
			 M113.054,114.598c-0.479-0.801-0.297-1.291-0.103-1.816l0.012-0.033c0.012-0.047,0.08-0.127,0.171-0.24
			c0.045,0.057,0.08,0.104,0.093,0.135l0.01,0.035C113.432,113.225,113.626,113.729,113.054,114.598z M117.751,106.494
			c-1.656,1.498-3.429,3.098-4.604,4.273c-1.178-1.176-3.006-2.832-4.709-4.377c-1.233-1.119-2.41-2.17-3.176-2.9
			c0.125-0.139,0.217-0.24,0.286-0.32c1.063-1.348,1.04-1.795-0.104-3.063c0.377-0.4,0.983-1.008,1.715-1.736
			c1.795-1.795,4.273-4.287,5.886-6.115c1.61,1.84,4.16,4.387,5.987,6.229c0.789,0.789,1.44,1.439,1.818,1.842l0.057,0.045
			c0.193,0.205,0.365,0.389,0.514,0.547c-0.628,0.813-0.628,1.293,0.012,2.184C120.745,103.785,119.306,105.09,117.751,106.494z
			 M122.676,99.526c-0.16,0.17-0.309,0.318-0.445,0.469c-0.138-0.148-0.285-0.299-0.445-0.469l-0.045-0.047
			c-0.377-0.389-1.041-1.053-1.84-1.861c-1.897-1.896-4.584-4.596-6.08-6.273c0.469-0.584,0.776-1.029,0.834-1.281
			c0.08-0.318-0.217-0.855-0.754-1.543c0.947-0.971,2.354-2.33,3.771-3.701h0.013c1.736-1.682,3.496-3.383,4.547-4.641
			c1.051,1.258,2.812,2.959,4.549,4.641c1.383,1.338,2.754,2.65,3.703,3.621c-0.584,0.723-0.903,1.293-0.834,1.623
			c0.067,0.264,0.399,0.742,0.914,1.371c-1.509,1.691-4.138,4.32-6,6.184c-0.801,0.811-1.463,1.475-1.841,1.863L122.676,99.526z
			 M131.327,114.713c-0.663-0.938-0.468-1.465-0.263-2.035l0.022-0.035c0.011-0.045,0.067-0.127,0.16-0.227
			c0.137,0.158,0.229,0.271,0.251,0.33l0.012,0.033C131.716,113.33,131.898,113.844,131.327,114.713z M138.87,103.375
			c0.034,0.047,0.079,0.104,0.126,0.16c-0.768,0.73-1.909,1.76-3.12,2.855c-1.669,1.51-3.463,3.121-4.64,4.297
			c-1.178-1.164-2.902-2.73-4.525-4.193c-1.555-1.404-2.994-2.709-3.68-3.395c0.64-0.891,0.64-1.371,0.011-2.184
			c0.149-0.158,0.319-0.342,0.515-0.547l0.057-0.045c0.365-0.4,1.029-1.053,1.816-1.842c1.795-1.807,4.297-4.309,5.908-6.137
			c1.611,1.816,4.045,4.262,5.816,6.023c0.789,0.799,1.439,1.449,1.817,1.838l0.046,0.059
			C137.83,101.571,137.783,102.016,138.87,103.375z M139.898,102.621c-0.012,0.01-0.023,0.021-0.035,0.033
			c-0.012-0.012-0.022-0.023-0.033-0.033c-0.446-0.57-0.469-0.834,0.033-1.439C140.367,101.787,140.344,102.051,139.898,102.621z
			 M148.538,114.494c-0.412-0.742-0.229-1.211-0.058-1.715l0.01-0.033c0.023-0.035,0.058-0.09,0.115-0.172
			c0.022,0.035,0.035,0.059,0.035,0.066l0.021,0.035C148.846,113.203,149.029,113.694,148.538,114.494z M153.291,106.494
			c-1.68,1.521-3.484,3.154-4.662,4.332c-1.178-1.189-3.041-2.869-4.777-4.436c-1.211-1.098-2.354-2.125-3.119-2.855
			c0.045-0.059,0.092-0.113,0.125-0.16c1.086-1.359,1.041-1.805-0.147-3.107l0.046-0.059c0.377-0.389,1.027-1.039,1.816-1.838
			c1.816-1.818,4.343-4.344,5.953-6.186c1.601,1.854,4.193,4.447,6.045,6.299c0.526,0.514,0.983,0.982,1.349,1.348
			c-1.396,1.486-1.497,1.896-0.365,3.338c0.125,0.148,0.343,0.375,0.64,0.674C155.439,104.553,154.388,105.502,153.291,106.494z
			 M157.314,102.725c-0.059,0.066-0.139,0.158-0.24,0.262c-0.264-0.25-0.459-0.457-0.561-0.582c-0.503-0.627-0.458-0.893,0.252-1.68
			C157.759,101.764,157.874,102.016,157.314,102.725z M165.416,113.922c-0.161-0.457-0.08-0.811,0.033-1.154
			C165.553,113.112,165.6,113.465,165.416,113.922z M170.329,106.278c-1.771,1.6-3.679,3.324-4.845,4.516
			c-1.153-1.189-3.119-2.973-4.938-4.617c-0.959-0.857-1.861-1.682-2.582-2.344c0.137-0.148,0.24-0.264,0.309-0.354
			c1.223-1.529,1.004-1.896-0.664-3.646c0.389-0.4,0.973-0.982,1.656-1.668c1.875-1.885,4.526-4.537,6.127-6.387
			c1.588,1.85,4.297,4.568,6.217,6.488c0.787,0.801,1.439,1.451,1.815,1.842l0.046,0.057l0.092,0.08
			c-1.029,1.166-1.018,1.633,0.01,2.926c0.023,0.023,0.046,0.045,0.068,0.068C172.878,103.981,171.645,105.102,170.329,106.278z
			 M174.479,102.336c-0.332-0.447-0.377-0.709-0.068-1.154C174.764,101.651,174.775,101.912,174.479,102.336z M183.186,114.379
			c-0.479-0.799-0.297-1.289-0.113-1.805l0.011-0.035c0.022-0.057,0.081-0.137,0.183-0.25c0.047,0.057,0.081,0.113,0.092,0.146
			l0.012,0.023C183.563,113.008,183.746,113.524,183.186,114.379z M187.883,106.278c-1.658,1.498-3.429,3.107-4.605,4.273
			c-1.178-1.178-3.006-2.834-4.719-4.377c-1.258-1.131-2.447-2.205-3.212-2.949c1.017-1.289,0.993-1.748-0.114-2.98l0.183-0.195
			l0.046-0.045c0.376-0.389,1.027-1.053,1.828-1.84c1.781-1.795,4.273-4.285,5.885-6.113c1.611,1.84,4.159,4.387,5.987,6.215
			c0.79,0.801,1.44,1.453,1.817,1.844l0.045,0.055c0.252,0.252,0.459,0.469,0.629,0.664c-0.502,0.695-0.502,1.166,0.022,1.93
			C191.048,103.422,189.527,104.793,187.883,106.278z M193.003,99.319c-0.194,0.205-0.377,0.398-0.537,0.57
			c-0.172-0.172-0.354-0.365-0.549-0.57l-0.045-0.059c-0.377-0.389-1.04-1.051-1.841-1.852c-1.896-1.896-4.582-4.594-6.078-6.273
			c0.468-0.582,0.777-1.041,0.834-1.291c0.068-0.32-0.217-0.855-0.754-1.531c0.949-0.973,2.354-2.332,3.771-3.715
			c1.806-1.736,3.623-3.482,4.663-4.764c1.039,1.279,2.846,3.027,4.651,4.764c1.417,1.371,2.811,2.732,3.76,3.691
			c-0.538,0.697-0.846,1.232-0.767,1.555c0.058,0.25,0.365,0.719,0.846,1.303c-1.497,1.682-4.171,4.365-6.058,6.264
			c-0.811,0.801-1.474,1.463-1.839,1.852L193.003,99.319z M201.722,114.403c-0.584-0.867-0.389-1.395-0.194-1.941l0.011-0.023
			c0.012-0.045,0.045-0.092,0.103-0.158c0.104,0.113,0.171,0.205,0.194,0.262l0.012,0.035
			C202.042,113.102,202.213,113.592,201.722,114.403z M209.48,103.17c0.022,0.023,0.034,0.045,0.059,0.068
			c-0.767,0.73-1.955,1.807-3.211,2.938c-1.692,1.541-3.521,3.188-4.697,4.365c-1.177-1.166-2.937-2.768-4.594-4.264
			c-1.646-1.484-3.166-2.855-3.794-3.521c0.524-0.764,0.538-1.232,0.022-1.93c0.17-0.195,0.377-0.412,0.627-0.664l0.047-0.057
			c0.377-0.389,1.027-1.041,1.827-1.842c1.817-1.828,4.354-4.365,5.965-6.205c1.611,1.83,4.093,4.311,5.874,6.104
			c0.801,0.789,1.451,1.453,1.828,1.84l0.046,0.047l0.08,0.092C208.44,101.387,208.418,101.832,209.48,103.17z M210.395,102.346
			c-0.377-0.49-0.399-0.764,0-1.277C210.807,101.582,210.784,101.856,210.395,102.346z M219.264,114.084
			c-0.263-0.631-0.114-1.053,0.045-1.51C219.469,113.02,219.583,113.453,219.264,114.084z"/>
		<path fill="#CCCCCC" d="M227.422,31.77c-0.274,0.834,0.022,1.61,0.458,2.229c-0.049,0.041-0.097,0.079-0.143,0.114h1.956
			c-0.052-0.039-0.103-0.08-0.156-0.126c0.444-0.605,0.743-1.383,0.457-2.217c-0.08-0.264-0.274-0.595-0.526-0.948
			c0.483-0.583,1.096-1.232,1.7-1.84h-1.682c-0.27,0.291-0.531,0.583-0.772,0.868c-0.242-0.285-0.504-0.578-0.771-0.868h-1.682
			c0.604,0.606,1.216,1.257,1.699,1.84C227.697,31.176,227.514,31.507,227.422,31.77z M228.588,32.158
			c0.023-0.091,0.068-0.184,0.125-0.285c0.058,0.104,0.092,0.194,0.126,0.285c0.104,0.309,0.034,0.617-0.126,0.902
			C228.554,32.776,228.486,32.467,228.588,32.158z"/>
		<path fill="#CCCCCC" d="M289.7,115.889c-1.475,1.348-4.795,3.752-6.743,5.131h2.099c2.014-1.455,4.535-3.336,5.666-4.422
			c0.068-0.057,0.126-0.115,0.183-0.172c0.091,0.092,0.182,0.184,0.273,0.285c1.106,1.057,3.537,2.871,5.527,4.309h0.622v-1.057
			c-1.899-1.377-4.155-3.066-5.229-4.074H289.7L289.7,115.889z"/>
		<path fill="#CCCCCC" d="M236.653,115.889c-1.568,1.393-4.906,3.803-6.775,5.131h2.1c2.038-1.469,4.659-3.416,5.82-4.525
			c0.138-0.125,0.263-0.25,0.377-0.377c0.092,0.092,0.185,0.184,0.275,0.273c1.189,1.139,3.911,3.15,5.966,4.629h2.111
			c-1.793-1.264-5.161-3.682-6.815-5.131H236.653L236.653,115.889z"/>
		<path fill="#CCCCCC" d="M292.263,109.615v1.664c1.113-1.057,2.719-2.512,4.229-3.883c0.282-0.256,0.562-0.506,0.834-0.752v-1.65
			c-0.516,0.467-1.078,0.977-1.657,1.5C294.509,107.545,293.295,108.645,292.263,109.615z"/>
		<path fill="#CCCCCC" d="M292.812,69.846c-0.197-0.197-0.379-0.385-0.549-0.563v1.738c0.729,0.695,1.685,1.541,2.674,2.412
			c0.81,0.717,1.642,1.451,2.39,2.139v-1.646c-0.52-0.469-1.052-0.939-1.577-1.406C294.64,71.549,293.589,70.612,292.812,69.846z"/>
		<path fill="#CCCCCC" d="M292.263,86.373v1.697c0.919-0.92,2.126-2.08,3.337-3.256c0.584-0.563,1.167-1.127,1.727-1.678v-1.711
			c-0.788,0.781-1.682,1.646-2.571,2.51C293.89,84.772,293.03,85.6,292.263,86.373z"/>
		<path fill="#CCCCCC" d="M292.263,93.688c1.494,1.6,3.295,3.406,4.687,4.799c0.13,0.129,0.255,0.252,0.377,0.375v-1.736
			c-1.628-1.631-3.663-3.686-5.063-5.207V93.688L292.263,93.688z"/>
	</g>
	<path d="M160.947,93.983c0.664,0,1.326-0.148,1.979-0.436c0.651-0.297,1.232-0.674,1.736-1.131
		c0.502-0.469,0.914-1.018,1.223-1.646c0.319-0.629,0.48-1.303,0.48-2.012c0-1.223-0.424-2.309-1.27-3.279l-9.188-10.514
		l9.188-10.33c0.801-0.926,1.199-1.988,1.199-3.211c0-0.675-0.148-1.326-0.445-1.977c-0.285-0.652-0.686-1.211-1.188-1.668
		c-0.504-0.469-1.085-0.846-1.736-1.145c-0.652-0.284-1.326-0.434-2.046-0.434c-0.835,0-1.578,0.172-2.205,0.503
		c-0.629,0.331-1.235,0.822-1.829,1.451l-6.514,9.292v15.346l6.583,9.176C157.999,93.321,159.348,93.983,160.947,93.983z"/>
	<rect x="1.337" y="27.645" fill="none" width="297.327" height="94.71"/>
	<polygon fill="none" points="1.337,27.645 298.664,27.645 298.664,122.356 1.337,122.356 	"/>
	<path d="M48.841,85.08c0.927,1.027,1.396,2.252,1.396,3.68s-0.469,2.65-1.396,3.68c-0.914,1.027-2.193,1.543-3.839,1.543H29.437
		l8.194-10.445h7.371C46.648,83.535,47.927,84.051,48.841,85.08z M201.722,88.633c1.736-1.725,3.119-3.758,4.125-6.113
		c1.006-2.342,1.509-4.846,1.509-7.484c0-2.652-0.503-5.143-1.509-7.496s-2.389-4.4-4.125-6.149
		c-1.749-1.736-3.795-3.107-6.137-4.113c-2.058-0.893-4.229-1.382-6.515-1.497v10.673c0.881,0.08,1.713,0.297,2.514,0.641
		c1.063,0.467,1.988,1.084,2.766,1.861c0.777,0.775,1.396,1.705,1.863,2.766c0.457,1.074,0.686,2.217,0.686,3.439
		c0,1.213-0.229,2.344-0.686,3.395c-0.469,1.053-1.086,1.979-1.863,2.777c-0.775,0.789-1.701,1.416-2.766,1.852
		c-0.801,0.332-1.633,0.537-2.514,0.617v10.41c2.285-0.104,4.457-0.605,6.515-1.484C197.927,91.719,199.973,90.36,201.722,88.633z
		 M170.387,82.52c-1.006-2.342-1.509-4.846-1.509-7.484c0-2.652,0.503-5.143,1.509-7.496s2.377-4.4,4.092-6.149
		c1.725-1.736,3.76-3.107,6.113-4.113c2.08-0.893,4.264-1.395,6.571-1.497v10.673c-0.847,0.092-1.658,0.309-2.412,0.641
		c-1.051,0.467-1.978,1.084-2.776,1.861c-0.8,0.775-1.418,1.705-1.852,2.766c-0.446,1.074-0.662,2.217-0.662,3.439
		c0,1.213,0.216,2.344,0.662,3.395c0.434,1.053,1.052,1.979,1.852,2.777c0.799,0.789,1.726,1.416,2.776,1.852
		c0.754,0.32,1.565,0.525,2.412,0.617v10.422c-2.31-0.113-4.491-0.605-6.571-1.496c-2.354-1.008-4.389-2.365-6.113-4.092
		C172.764,86.908,171.393,84.875,170.387,82.52z M138.023,88.76V61.551c0-1.681,0.516-2.96,1.543-3.84
		c1.028-0.879,2.25-1.326,3.681-1.326c1.383,0,2.594,0.446,3.622,1.326c1.027,0.88,1.543,2.16,1.543,3.84v8.627v9.953v8.629
		c0,1.68-0.516,2.959-1.543,3.84c-1.028,0.879-2.239,1.324-3.622,1.324c-1.429,0-2.651-0.445-3.681-1.324
		C138.539,91.719,138.023,90.44,138.023,88.76z M97.398,82.52c-1.006-2.342-1.508-4.846-1.508-7.484
		c0-2.652,0.502-5.143,1.508-7.496s2.377-4.4,4.092-6.149c1.726-1.736,3.759-3.107,6.113-4.113c2.08-0.893,4.262-1.395,6.57-1.497
		v10.673c-0.846,0.092-1.656,0.309-2.411,0.641c-1.051,0.467-1.978,1.084-2.776,1.861c-0.801,0.775-1.418,1.705-1.852,2.766
		c-0.445,1.074-0.663,2.217-0.663,3.439c0,1.213,0.218,2.344,0.663,3.395c0.434,1.053,1.051,1.979,1.852,2.777
		c0.8,0.789,1.727,1.416,2.776,1.852c0.755,0.32,1.565,0.525,2.411,0.617v10.422c-2.309-0.113-4.49-0.605-6.57-1.496
		c-2.354-1.008-4.389-2.365-6.113-4.092C99.775,86.908,98.404,84.875,97.398,82.52z M122.596,92.725
		c-2.057,0.881-4.229,1.385-6.514,1.486V83.799c0.88-0.078,1.714-0.285,2.514-0.615c1.063-0.436,1.989-1.063,2.766-1.852
		c0.777-0.801,1.396-1.727,1.863-2.777c0.457-1.053,0.687-2.184,0.687-3.395c0-1.225-0.229-2.365-0.687-3.439
		c-0.468-1.063-1.086-1.99-1.863-2.766c-0.776-0.777-1.703-1.396-2.766-1.861c-0.8-0.346-1.634-0.563-2.514-0.641V55.779
		c2.285,0.115,4.457,0.604,6.514,1.497c2.344,1.005,4.389,2.376,6.137,4.113c1.737,1.75,3.121,3.794,4.125,6.15
		c1.006,2.354,1.51,4.844,1.51,7.494c0,2.641-0.504,5.145-1.51,7.484c-1.004,2.355-2.388,4.391-4.125,6.115
		C126.984,90.36,124.939,91.719,122.596,92.725z M81.091,92.725c-2.058,0.881-4.228,1.385-6.502,1.486V83.799
		c0.869-0.078,1.715-0.285,2.503-0.615c1.074-0.436,2-1.063,2.777-1.852c0.777-0.801,1.394-1.727,1.851-2.777
		c0.47-1.053,0.697-2.184,0.697-3.395c0-1.225-0.229-2.365-0.697-3.439c-0.457-1.063-1.073-1.99-1.851-2.766
		c-0.777-0.777-1.703-1.396-2.777-1.861c-0.788-0.346-1.634-0.563-2.503-0.641V55.779c2.274,0.115,4.446,0.604,6.502,1.497
		c2.354,1.005,4.399,2.376,6.138,4.113c1.748,1.75,3.118,3.794,4.125,6.15c1.004,2.354,1.521,4.844,1.521,7.494
		c0,2.641-0.515,5.145-1.521,7.484c-1.007,2.355-2.377,4.391-4.125,6.115C85.49,90.36,83.445,91.719,81.091,92.725z M55.904,82.52
		c-1.006-2.342-1.521-4.846-1.521-7.484c0-2.652,0.515-5.143,1.521-7.496c1.004-2.354,2.365-4.4,4.09-6.149
		c1.727-1.736,3.761-3.107,6.104-4.113c2.079-0.893,4.273-1.395,6.57-1.497v10.673c-0.846,0.092-1.646,0.309-2.411,0.641
		c-1.052,0.467-1.966,1.084-2.767,1.861c-0.799,0.775-1.416,1.705-1.861,2.766c-0.436,1.074-0.663,2.217-0.663,3.439
		c0,1.213,0.229,2.344,0.663,3.395c0.445,1.053,1.063,1.979,1.861,2.777c0.801,0.789,1.715,1.416,2.767,1.852
		c0.767,0.32,1.565,0.525,2.411,0.617v10.422c-2.297-0.113-4.491-0.605-6.57-1.496c-2.343-1.008-4.377-2.365-6.104-4.092
		C58.27,86.908,56.91,84.875,55.904,82.52z M22.33,84.6L36.5,66.785H25.484c-1.634,0-2.914-0.516-3.839-1.543
		c-0.926-1.029-1.383-2.264-1.383-3.691c0-1.429,0.457-2.651,1.383-3.681c0.925-1.028,2.206-1.542,3.839-1.542h20.467
		c1.428,0,2.606,0.412,3.532,1.223c0.914,0.822,1.383,1.965,1.383,3.439c0,1.052-0.32,2.16-0.949,3.335L39.129,78.498L27.004,93.983
		h-1.143c-1.76,0-3.154-0.412-4.183-1.225c-1.028-0.82-1.542-2.021-1.542-3.621C20.136,87.582,20.867,86.073,22.33,84.6z
		 M246.609,26.306v-3.474c0-0.514-0.218-0.981-0.549-1.313c-0.343-0.344-0.812-0.55-1.326-0.55h-0.046v-0.081h0.046
		c0.515,0,0.982-0.204,1.326-0.548c0.331-0.332,0.549-0.8,0.549-1.314v-3.6c0-0.515-0.218-0.982-0.549-1.326
		c-0.146-0.146-0.317-0.26-0.502-0.351c0.186-0.092,0.356-0.206,0.502-0.347c0.331-0.343,0.549-0.813,0.549-1.325v-3.6
		c0-0.515-0.218-0.983-0.549-1.326c-0.043-0.042-0.094-0.075-0.14-0.113c0.046-0.039,0.097-0.073,0.14-0.116
		c0.331-0.343,0.549-0.812,0.549-1.326v-3.6c0-0.514-0.218-0.981-0.549-1.325c-0.343-0.331-0.812-0.548-1.326-0.548h-0.046v-0.126
		h-1.337v0.126h-0.034c-0.515,0-0.982,0.217-1.325,0.548c-0.331,0.343-0.548,0.813-0.548,1.325v3.6c0,0.515,0.217,0.983,0.548,1.326
		c0.043,0.043,0.093,0.077,0.14,0.116c-0.047,0.038-0.097,0.071-0.14,0.113c-0.331,0.343-0.548,0.812-0.548,1.326v3.6
		c0,0.514,0.217,0.982,0.548,1.325c0.146,0.141,0.316,0.255,0.502,0.347c-0.186,0.091-0.356,0.205-0.502,0.351
		c-0.331,0.343-0.548,0.812-0.548,1.326v3.6c0,0.515,0.217,0.982,0.548,1.314c0.343,0.344,0.811,0.548,1.325,0.548h0.034v0.081
		h-0.034c-0.515,0-0.982,0.206-1.325,0.55c-0.331,0.331-0.548,0.8-0.548,1.313v3.474H56.646v-3.474c0-0.514-0.217-0.981-0.549-1.313
		c-0.343-0.344-0.812-0.55-1.324-0.55h-0.047v-0.081h0.047c0.514,0,0.981-0.204,1.324-0.548c0.332-0.332,0.549-0.8,0.549-1.314v-3.6
		c0-0.515-0.217-0.982-0.549-1.326c-0.145-0.146-0.316-0.26-0.501-0.351c0.185-0.092,0.357-0.206,0.501-0.347
		c0.332-0.343,0.549-0.813,0.549-1.325v-3.6c0-0.515-0.217-0.983-0.549-1.326c-0.043-0.042-0.093-0.075-0.14-0.113
		c0.047-0.039,0.097-0.073,0.14-0.116c0.332-0.343,0.549-0.812,0.549-1.326v-3.6c0-0.514-0.217-0.981-0.549-1.325
		c-0.343-0.331-0.812-0.548-1.324-0.548h-0.047v-0.126h-1.336v0.126h-0.035c-0.514,0-0.981,0.217-1.324,0.548
		c-0.332,0.343-0.549,0.813-0.549,1.325v3.6c0,0.515,0.217,0.983,0.549,1.326c0.041,0.043,0.093,0.077,0.14,0.116
		c-0.047,0.038-0.099,0.071-0.14,0.113c-0.332,0.343-0.549,0.812-0.549,1.326v3.6c0,0.514,0.217,0.982,0.549,1.325
		c0.145,0.141,0.316,0.255,0.5,0.347c-0.185,0.091-0.356,0.205-0.5,0.351c-0.332,0.343-0.549,0.812-0.549,1.326v3.6
		c0,0.515,0.217,0.982,0.549,1.314c0.343,0.344,0.812,0.548,1.324,0.548h0.035v0.081h-0.035c-0.514,0-0.981,0.206-1.324,0.55
		c-0.332,0.331-0.549,0.8-0.549,1.313v3.474H1.336H0v97.387c100.003,0,199.996,0,300,0V26.306H246.609z M242.781,2
		c0-0.146,0.058-0.272,0.159-0.376c0.092-0.092,0.229-0.161,0.378-0.161h0.034v1.131h1.338V1.463h0.045
		c0.148,0,0.274,0.069,0.377,0.161c0.091,0.104,0.161,0.229,0.161,0.376V5.6c0,0.148-0.069,0.285-0.161,0.377
		c-0.104,0.103-0.229,0.159-0.377,0.159h-0.045V5.028h-1.338v1.108h-0.034c-0.148,0-0.286-0.057-0.378-0.159
		c-0.102-0.093-0.159-0.229-0.159-0.377V2z M242.781,8.48c0-0.149,0.058-0.274,0.159-0.377c0.092-0.092,0.229-0.159,0.378-0.159
		h0.034v1.588h1.338V7.944h0.045c0.148,0,0.274,0.067,0.377,0.159c0.091,0.104,0.161,0.229,0.161,0.377v3.6
		c0,0.148-0.069,0.273-0.161,0.377c-0.104,0.104-0.229,0.16-0.377,0.16h-0.045v-1.108h-1.338v1.108h-0.034
		c-0.148,0-0.286-0.057-0.378-0.16c-0.102-0.104-0.159-0.229-0.159-0.377V8.48z M243.318,19.553c-0.148,0-0.286-0.058-0.378-0.148
		c-0.102-0.104-0.159-0.24-0.159-0.377v-3.6c0-0.148,0.058-0.286,0.159-0.377c0.092-0.103,0.229-0.161,0.378-0.161h0.034v1.12h1.337
		v-1.12h0.046c0.148,0,0.274,0.059,0.377,0.161c0.091,0.092,0.16,0.229,0.16,0.377v3.6c0,0.137-0.068,0.274-0.16,0.377
		c-0.104,0.091-0.229,0.148-0.377,0.148h-0.046v-0.641h-1.337v0.641H243.318z M242.781,22.833c0-0.137,0.058-0.273,0.159-0.377
		c0.092-0.092,0.229-0.148,0.378-0.148h0.034v1.108h1.338v-1.108h0.045c0.148,0,0.274,0.058,0.377,0.148
		c0.091,0.104,0.161,0.24,0.161,0.377v3.474h-2.492V22.833L242.781,22.833z M52.818,2c0-0.146,0.058-0.272,0.16-0.376
		c0.104-0.092,0.229-0.161,0.377-0.161h0.035v1.131h1.336V1.463h0.047c0.147,0,0.273,0.069,0.377,0.161
		c0.092,0.104,0.16,0.229,0.16,0.376V5.6c0,0.148-0.068,0.285-0.16,0.377c-0.104,0.103-0.229,0.159-0.377,0.159h-0.047V5.028h-1.336
		v1.108h-0.035c-0.147,0-0.273-0.057-0.377-0.159c-0.104-0.093-0.16-0.229-0.16-0.377V2z M52.818,8.48
		c0-0.149,0.058-0.274,0.16-0.377c0.104-0.092,0.229-0.159,0.377-0.159h0.035v1.588h1.336V7.944h0.047
		c0.147,0,0.273,0.067,0.377,0.159c0.092,0.104,0.16,0.229,0.16,0.377v3.6c0,0.148-0.068,0.273-0.16,0.377
		c-0.104,0.104-0.229,0.16-0.377,0.16h-0.047v-1.108h-1.336v1.108h-0.035c-0.147,0-0.273-0.057-0.377-0.16s-0.16-0.229-0.16-0.377
		V8.48z M53.355,19.553c-0.147,0-0.273-0.058-0.377-0.148c-0.104-0.104-0.16-0.24-0.16-0.377v-3.6c0-0.148,0.058-0.286,0.16-0.377
		c0.104-0.103,0.229-0.161,0.377-0.161h0.035v1.12h1.336v-1.12h0.047c0.147,0,0.273,0.059,0.377,0.161
		c0.092,0.092,0.16,0.229,0.16,0.377v3.6c0,0.137-0.068,0.274-0.16,0.377c-0.104,0.091-0.229,0.148-0.377,0.148h-0.047v-0.641
		h-1.336v0.641H53.355z M52.818,22.833c0-0.137,0.058-0.273,0.16-0.377c0.104-0.092,0.229-0.148,0.377-0.148h0.035v1.108h1.336
		v-1.108h0.047c0.147,0,0.273,0.058,0.377,0.148c0.092,0.104,0.16,0.24,0.16,0.377v3.474h-2.492V22.833L52.818,22.833z
		 M297.326,121.02H2.674V28.982h294.651L297.326,121.02L297.326,121.02z M225.96,34.112v81.775h66.304V34.112H225.96z
		 M279.328,72.074h-0.046c-0.023,0.365-0.045,0.721-0.104,1.063c-0.011,0.092-0.022,0.195-0.046,0.297
		c-0.08,0.527-0.192,1.018-0.343,1.498c-0.022,0.068-0.057,0.172-0.091,0.285c-0.035,0.092-0.08,0.23-0.149,0.412l-0.033,0.09v0.012
		l-0.034,0.094c-0.069,0.172-0.126,0.332-0.183,0.455v0.014c-0.081,0.16-0.148,0.32-0.218,0.467
		c-0.069,0.16-0.148,0.311-0.229,0.459c-0.399,0.789-0.868,1.508-1.383,2.148l-0.252,0.309h-0.034l-0.091,0.09l0.046,0.035
		l-0.595,0.584l-0.081,0.09l-0.056,0.023c-0.046,0.047-0.081,0.08-0.126,0.113c-0.093,0.092-0.171,0.162-0.229,0.219
		c-0.24,0.205-0.492,0.422-0.755,0.617c0.012,0.031,0.012,0.057,0.012,0.066l0.023,0.092v0.033c0.022,0.094,0.034,0.174,0.034,0.24
		c0,0.012,0,0.012,0,0.023c0.057,0.25,0.091,0.502,0.137,0.742c0.012,0.125,0.022,0.217,0.034,0.285
		c0.011,0.127,0.011,0.219,0.022,0.275c0.012,0.045,0.012,0.102,0.012,0.146h0.058v0.822c0,0.344-0.034,0.709-0.081,1.109
		c-0.034,0.365-0.091,0.754-0.182,1.166c-0.069,0.398-0.16,0.787-0.274,1.152c-0.126,0.377-0.251,0.732-0.389,1.064
		c-0.297,0.697-0.651,1.348-1.063,1.953s-0.881,1.166-1.417,1.703l-0.011,0.021h-0.023c-0.032,0.045-0.103,0.115-0.217,0.207
		c-0.091,0.09-0.171,0.172-0.229,0.217c-0.4,0.354-0.813,0.676-1.246,0.973c-0.091,0.057-0.17,0.113-0.251,0.158
		c-0.114,0.059-0.194,0.113-0.263,0.148c-0.424,0.264-0.893,0.504-1.384,0.709h-0.011c-0.081,0.035-0.172,0.068-0.263,0.115
		c-0.046,0.01-0.138,0.045-0.251,0.09c-0.171,0.07-0.354,0.125-0.525,0.184l0.012,0.047l-0.8,0.184
		c-0.138,0.033-0.274,0.057-0.377,0.057c0,0,0,0-0.012,0c-0.251,0.057-0.502,0.104-0.754,0.137
		c-0.114,0.012-0.206,0.023-0.274,0.023c-0.126,0.021-0.229,0.035-0.287,0.035c-0.045,0-0.091,0.01-0.137,0.01v0.059h-0.822
		c-0.354,0-0.709-0.035-1.108-0.068c-0.365-0.047-0.754-0.104-1.177-0.195c-0.389-0.066-0.777-0.17-1.144-0.283
		c-0.309-0.094-0.582-0.195-0.869-0.299l-0.057,0.033c-0.104,0.045-0.114,0.045-0.125,0.059l-0.755,0.342l-0.022-0.057
		c-0.218,0.068-0.458,0.139-0.709,0.193c-0.319,0.068-0.594,0.115-0.833,0.148c-0.274,0.035-0.525,0.045-0.777,0.045
		c-0.835,0-1.657-0.137-2.457-0.422c-0.354,0.113-0.721,0.205-1.087,0.273c-0.17,0.035-0.354,0.059-0.524,0.068v0.068h-0.823h-0.012
		V95.59c-0.045,0-0.091,0-0.148,0l-3.119,4.365l-1.485,2.068v-2.561v-5.508c-0.104-0.08-0.194-0.148-0.274-0.229h-0.011
		c-0.114-0.104-0.24-0.217-0.366-0.332c-0.103-0.102-0.217-0.229-0.331-0.354c-0.56-0.641-1.006-1.348-1.326-2.146v-0.012
		c-0.057-0.139-0.113-0.264-0.147-0.391c-0.046-0.137-0.092-0.264-0.125-0.4c-0.205-0.695-0.297-1.395-0.297-2.113v-7.313
		l-0.012-0.012c-0.08-0.08-0.184-0.184-0.273-0.273h-0.012c-0.08-0.092-0.16-0.174-0.24-0.252c-0.058-0.057-0.137-0.15-0.229-0.264
		c-0.398-0.436-0.765-0.914-1.097-1.406l-0.012-0.01c-0.068-0.104-0.138-0.195-0.193-0.287c-0.035-0.057-0.093-0.158-0.172-0.297
		c-0.308-0.502-0.571-1.027-0.812-1.566v-0.01v-0.014c-0.034-0.078-0.069-0.17-0.114-0.273c-0.034-0.066-0.068-0.16-0.114-0.285
		c-0.079-0.229-0.16-0.455-0.229-0.686h-0.046l-0.183-0.799c-0.115-0.459-0.172-0.803-0.184-1.055
		c-0.012-0.066-0.022-0.135-0.034-0.215c-0.012-0.125-0.023-0.23-0.035-0.309c-0.023-0.15-0.023-0.252-0.034-0.32
		c-0.012-0.08-0.012-0.172-0.012-0.264h-0.057v-0.822c0-0.4,0.022-0.813,0.078-1.246c0.035-0.41,0.104-0.855,0.206-1.313
		c0.034-0.172,0.059-0.285,0.069-0.365c0.023-0.104,0.057-0.23,0.091-0.365c0.172-0.619,0.354-1.201,0.594-1.75
		c0.161-0.365,0.332-0.742,0.537-1.107c0.195-0.365,0.412-0.721,0.642-1.063c0.229-0.344,0.469-0.676,0.73-0.984
		c0.251-0.318,0.526-0.617,0.8-0.901v-0.013l0.034-0.011c0.114-0.126,0.229-0.24,0.354-0.354c0.114-0.104,0.229-0.218,0.377-0.319
		c0.629-0.562,1.338-1.052,2.114-1.486l0.057-0.033h0.011l0.069-0.034c0.091-0.058,0.251-0.138,0.479-0.252l0.126-0.058l0.104-0.057
		h0.012c0.195-0.091,0.32-0.148,0.388-0.184c0.115-0.046,0.229-0.092,0.321-0.138c0.137-0.046,0.251-0.091,0.342-0.125
		c0.561-0.194,1.167-0.366,1.817-0.492c0.068-0.021,0.137-0.034,0.217-0.045c-0.034-0.092-0.08-0.184-0.114-0.274
		c-0.079-0.217-0.147-0.445-0.217-0.662c-0.058-0.217-0.114-0.446-0.147-0.687c-0.093-0.457-0.138-0.913-0.138-1.358
		c0-0.697,0.092-1.36,0.264-2c0.021-0.069,0.057-0.171,0.091-0.309c0.171-0.537,0.412-1.052,0.687-1.543l0.057-0.103
		c0.058-0.069,0.058-0.091,0.068-0.091c0.104-0.16,0.194-0.32,0.286-0.446l-0.022-0.034l0.549-0.605
		c0.377-0.422,0.788-0.801,1.257-1.12c0.445-0.309,0.948-0.583,1.485-0.8c0.137-0.058,0.263-0.104,0.388-0.149
		c0.137-0.034,0.263-0.08,0.413-0.126c0.674-0.194,1.37-0.285,2.091-0.285h0.822v0.022h4.72c0.675,0,1.315,0.068,1.942,0.229
		c0.617,0.16,1.212,0.4,1.782,0.709c0.149,0.092,0.286,0.16,0.412,0.251c0.125,0.08,0.251,0.172,0.377,0.264
		c0.537,0.388,0.993,0.845,1.395,1.359h2.65h1.703l-1.063,1.326l-1.749,2.216c0.035,0.206,0.046,0.424,0.058,0.629
		c0.035,0.354,0.023,0.697-0.012,1.04c-0.034,0.561-0.148,1.12-0.308,1.668c-0.092,0.311-0.206,0.606-0.344,0.903
		c0.045,0,0.08,0.012,0.114,0.021c0.16,0.035,0.285,0.059,0.366,0.069c0.102,0.033,0.228,0.057,0.364,0.103
		c0.617,0.148,1.2,0.354,1.749,0.583c0.159,0.068,0.309,0.138,0.469,0.206c0.172,0.08,0.318,0.16,0.445,0.229
		c0.755,0.399,1.475,0.856,2.147,1.406l0.045,0.033h0.012l0.047,0.045c0.067,0.058,0.204,0.184,0.398,0.354l0.011,0.011l0.093,0.08
		l0.079,0.08h0.012c0.022,0.022,0.046,0.046,0.057,0.069h0.045l0.24,0.228l0.24,0.252v0.021c0.057,0.057,0.126,0.148,0.24,0.252
		c0.388,0.445,0.742,0.914,1.085,1.406v0.012h0.012c0.091,0.137,0.148,0.238,0.183,0.283c0.035,0.07,0.091,0.162,0.184,0.299
		c0.298,0.514,0.571,1.039,0.8,1.576l0.013,0.012c0.045,0.115,0.091,0.229,0.124,0.32c0.058,0.137,0.104,0.252,0.126,0.342
		c0.206,0.561,0.366,1.166,0.503,1.818c0.091,0.457,0.161,0.902,0.206,1.313c0.046,0.434,0.069,0.846,0.069,1.246v0.826H279.328z
		 M277.625,70.178c-0.034-0.389-0.104-0.777-0.171-1.166c-0.114-0.549-0.264-1.074-0.446-1.588c-0.046-0.125-0.08-0.217-0.114-0.285
		c-0.035-0.104-0.068-0.193-0.113-0.275h0.011v-0.01c-0.206-0.48-0.446-0.938-0.709-1.383c-0.023-0.047-0.091-0.127-0.171-0.252
		c-0.069-0.139-0.126-0.217-0.16-0.264c-0.298-0.445-0.617-0.857-0.949-1.234c-0.045-0.045-0.114-0.125-0.206-0.217
		c-0.08-0.08-0.147-0.148-0.206-0.217l-0.092-0.092c-0.056-0.047-0.126-0.104-0.205-0.184l-0.08-0.08v0.01l-0.092-0.078
		c-0.125-0.125-0.263-0.24-0.365-0.33l-0.046-0.035l-0.045-0.033v-0.012c-0.584-0.458-1.201-0.858-1.863-1.201
		c-0.16-0.08-0.286-0.148-0.399-0.206c-0.138-0.057-0.264-0.126-0.399-0.171c-0.479-0.217-0.995-0.389-1.52-0.526
		c-0.08-0.022-0.183-0.045-0.32-0.067c-0.148-0.035-0.251-0.059-0.32-0.08c-0.377-0.069-0.754-0.139-1.143-0.172l-1.44-0.16
		l0.879-1.154v-0.012l0.115-0.205c0.239-0.434,0.423-0.855,0.561-1.303c0.137-0.423,0.218-0.869,0.251-1.314
		c0.022-0.274,0.022-0.548,0.012-0.812c-0.022-0.275-0.057-0.538-0.104-0.789l-0.079-0.389l0.239-0.285l0.927-1.166h-1.36h-0.436
		l-0.251-0.366c-0.354-0.514-0.766-0.96-1.269-1.314c-0.092-0.081-0.195-0.147-0.297-0.218c-0.115-0.067-0.217-0.137-0.32-0.182
		c-0.434-0.252-0.892-0.435-1.383-0.548c-0.48-0.126-0.994-0.185-1.543-0.185h-5.542h-0.503c-0.39,0.023-0.777,0.092-1.154,0.206
		c-0.103,0.022-0.205,0.058-0.309,0.092c-0.114,0.045-0.217,0.08-0.31,0.125c-0.422,0.16-0.812,0.366-1.177,0.617
		c-0.309,0.217-0.605,0.48-0.869,0.767l-0.012,0.012l-0.011,0.011l-0.013,0.035l-0.056,0.057c-0.07,0.081-0.148,0.171-0.24,0.274
		c-0.058,0.08-0.113,0.137-0.148,0.184c-0.091,0.138-0.172,0.263-0.251,0.376c-0.046,0.069-0.035,0.059-0.046,0.081l-0.046,0.08
		c-0.24,0.4-0.423,0.8-0.549,1.211c-0.011,0.045-0.034,0.125-0.068,0.239c-0.138,0.515-0.206,1.029-0.206,1.578
		c0,0.365,0.035,0.72,0.103,1.062c0.035,0.172,0.069,0.354,0.126,0.538c0.046,0.171,0.104,0.354,0.172,0.537
		c0.103,0.263,0.217,0.526,0.354,0.766c0.034,0.058,0.057,0.104,0.091,0.148c0.034,0.069,0.069,0.114,0.08,0.148l0.012,0.022
		l0.687,1.12l-1.313,0.114c-0.229,0.022-0.436,0.046-0.618,0.067c-0.229,0.035-0.434,0.069-0.617,0.104
		c-0.549,0.113-1.073,0.262-1.589,0.444c-0.113,0.046-0.217,0.08-0.284,0.104c-0.104,0.046-0.195,0.081-0.287,0.114v0.012
		c-0.068,0.021-0.171,0.068-0.319,0.147l-0.114,0.047l-0.114,0.057c-0.148,0.069-0.298,0.148-0.435,0.229l-0.046,0.023l-0.068,0.035
		c-0.662,0.365-1.279,0.799-1.841,1.281c-0.102,0.09-0.217,0.193-0.318,0.297c-0.114,0.102-0.219,0.205-0.321,0.297h0.012
		l-0.022,0.021c-0.251,0.252-0.479,0.516-0.708,0.787c-0.219,0.266-0.436,0.563-0.628,0.859c-0.206,0.307-0.39,0.617-0.572,0.924
		c-0.16,0.32-0.319,0.641-0.468,0.973c-0.206,0.48-0.377,0.994-0.515,1.52c-0.011,0.082-0.046,0.195-0.081,0.322
		c-0.022,0.135-0.056,0.25-0.056,0.318h-0.012c-0.08,0.389-0.139,0.777-0.172,1.166c-0.022,0.158-0.034,0.318-0.046,0.48v0.592
		c0,0.299,0.012,0.617,0.046,0.961c0.011,0.125,0.011,0.217,0.022,0.264c0.011,0.125,0.023,0.217,0.035,0.285
		c0.034,0.252,0.068,0.49,0.114,0.73c0.021,0.113,0.045,0.217,0.067,0.32v0.045c0.115,0.445,0.24,0.869,0.39,1.293
		c0.032,0.057,0.057,0.137,0.103,0.25c0.034,0.068,0.068,0.148,0.104,0.24c0.205,0.479,0.444,0.947,0.708,1.383
		c0.034,0.045,0.08,0.137,0.159,0.264c0.058,0.092,0.104,0.17,0.16,0.252h0.013c0.286,0.443,0.605,0.855,0.947,1.244
		c0.059,0.045,0.126,0.127,0.207,0.219c0.08,0.078,0.148,0.16,0.218,0.215c0.079,0.08,0.148,0.162,0.252,0.24
		c0.056,0.059,0.137,0.139,0.251,0.229l0.272,0.252v0.379v0.068v0.055v7.543c0,0.572,0.08,1.133,0.229,1.668
		c0.035,0.105,0.058,0.205,0.103,0.32c0.035,0.104,0.069,0.207,0.114,0.311c0.24,0.629,0.595,1.188,1.029,1.668
		c0.068,0.09,0.159,0.184,0.262,0.285c0.092,0.08,0.195,0.172,0.286,0.252v0.012c0.081,0.057,0.172,0.127,0.252,0.193
		c0.068,0.057,0.16,0.125,0.239,0.184l0.365,0.24v0.434v3.371l1.887-2.639l0.273-0.389l0.469,0.045h0.491
		c0.377,0,0.731-0.035,1.074-0.092c0.343-0.059,0.674-0.148,1.005-0.264l0.045-0.023l0.034-0.012l0.298-0.113l0.297,0.125
		c0.697,0.275,1.406,0.424,2.139,0.424v-0.012c0.182,0,0.364-0.01,0.569-0.033c0.24-0.023,0.47-0.068,0.688-0.115
		c0.193-0.047,0.389-0.102,0.594-0.17c0.195-0.059,0.377-0.127,0.548-0.205l0.035-0.014l0.045-0.021h0.012
		c0.047-0.023,0.104-0.059,0.184-0.09l0.205-0.115l0.343-0.172l0.354,0.158l0.08,0.035l0.058,0.023h0.012
		c0.297,0.125,0.594,0.24,0.903,0.33c0.308,0.104,0.64,0.184,0.994,0.252c0.33,0.066,0.686,0.127,1.017,0.16
		c0.137,0.012,0.263,0.021,0.388,0.033h0.549c0.264,0,0.537-0.012,0.833-0.045c0.115,0,0.195-0.012,0.24-0.012
		c0.104-0.012,0.185-0.023,0.24-0.035c0.218-0.021,0.423-0.057,0.641-0.102c0.092-0.014,0.17-0.035,0.251-0.047l0.081-0.014
		c0.366-0.09,0.742-0.203,1.131-0.342c0.034-0.021,0.103-0.045,0.205-0.092c0.069-0.02,0.148-0.057,0.218-0.08V93.25
		c0.435-0.182,0.834-0.389,1.212-0.605c0.103-0.057,0.16-0.104,0.217-0.139c0.08-0.045,0.147-0.09,0.217-0.135
		c0.377-0.252,0.744-0.527,1.085-0.834c0.081-0.068,0.137-0.127,0.184-0.174c0.034-0.033,0.091-0.092,0.193-0.182l0.012-0.023h0.012
		c0.445-0.445,0.846-0.938,1.201-1.463c0.363-0.523,0.662-1.074,0.914-1.668c0.126-0.297,0.239-0.594,0.33-0.902
		c0.104-0.32,0.184-0.652,0.251-0.994c0.069-0.342,0.114-0.686,0.161-1.029c0.012-0.125,0.022-0.262,0.034-0.389v-0.537
		c0-0.262-0.022-0.535-0.046-0.834c0-0.113-0.012-0.193-0.012-0.24c-0.022-0.102-0.022-0.182-0.033-0.238
		c-0.023-0.219-0.058-0.436-0.104-0.641c-0.022-0.092-0.034-0.184-0.034-0.264c-0.013-0.012-0.013-0.021-0.013-0.045l-0.033-0.104
		v-0.012c-0.022-0.092-0.035-0.148-0.047-0.172c-0.012-0.068-0.034-0.158-0.067-0.275l-0.185-0.568l0.491-0.346
		c0.377-0.25,0.743-0.535,1.086-0.844c0.091-0.08,0.149-0.139,0.194-0.172c0.069-0.068,0.137-0.127,0.183-0.184l0.08-0.078
		c0.035-0.035,0.069-0.07,0.104-0.115c0.138-0.137,0.218-0.23,0.252-0.264c0.08-0.08,0.147-0.182,0.24-0.273
		c0.057-0.068,0.114-0.127,0.148-0.172l0.24-0.311h0.011c0.366-0.479,0.687-1.004,0.972-1.553c0.068-0.137,0.138-0.264,0.205-0.41
		c0.059-0.139,0.126-0.275,0.185-0.424h0.011c0.045-0.115,0.103-0.24,0.148-0.391l0.033-0.09l0.035-0.092v-0.012
		c0.046-0.115,0.091-0.229,0.125-0.354c0.046-0.104,0.069-0.172,0.081-0.24c0.126-0.422,0.229-0.857,0.296-1.291
		c0.023-0.08,0.035-0.16,0.046-0.252c0.08-0.547,0.115-1.098,0.115-1.668V70.61C277.659,70.463,277.635,70.326,277.625,70.178z
		 M256.369,56.99c-0.445,0-0.789-0.137-1.04-0.411c-0.251-0.285-0.377-0.617-0.377-1.005c0-0.377,0.126-0.709,0.377-0.995
		c0.251-0.273,0.595-0.411,1.04-0.411h5.543c0.571,0,0.96,0.217,1.188,0.662c0.24,0.446,0.194,0.938-0.113,1.497l-3.955,5.2h2.617
		c0.445,0,0.801,0.147,1.052,0.422c0.251,0.273,0.377,0.606,0.377,0.993c0,0.391-0.126,0.721-0.377,1.008
		c-0.251,0.271-0.605,0.41-1.052,0.41h-5.178c-0.811,0-1.302-0.297-1.484-0.881c-0.184-0.582,0-1.131,0.537-1.656l3.828-4.834
		L256.369,56.99L256.369,56.99z M256.803,88.553c-0.092,0.174-0.194,0.32-0.332,0.447c-0.146,0.137-0.308,0.24-0.491,0.318
		c-0.183,0.082-0.364,0.113-0.548,0.113c-0.435,0-0.8-0.182-1.121-0.559l-2.342-3.201v2.32c0,0.469-0.147,0.824-0.435,1.063
		c-0.285,0.24-0.616,0.365-0.994,0.365c-0.4,0-0.744-0.125-1.018-0.365c-0.297-0.238-0.434-0.594-0.434-1.063v-7.541
		c0-0.457,0.137-0.813,0.434-1.063c0.273-0.24,0.617-0.367,1.018-0.367c0.377,0,0.708,0.127,0.994,0.367
		c0.286,0.25,0.435,0.604,0.435,1.063v2.318l2.331-3.256c0.16-0.172,0.332-0.309,0.515-0.398c0.172-0.094,0.365-0.139,0.605-0.139
		c0.194,0,0.377,0.033,0.56,0.113c0.184,0.092,0.345,0.193,0.491,0.32c0.138,0.125,0.24,0.285,0.321,0.457
		c0.079,0.184,0.125,0.365,0.125,0.549c0,0.344-0.114,0.641-0.332,0.891l-2.479,2.857l2.479,2.914
		c0.229,0.273,0.344,0.57,0.344,0.914C256.929,88.188,256.894,88.371,256.803,88.553z M256.483,76.018
		c-0.604,0.605-1.325,1.074-2.148,1.43c-0.823,0.354-1.691,0.523-2.616,0.523c-0.926,0-1.795-0.172-2.628-0.523
		c-0.813-0.354-1.532-0.822-2.138-1.43c-0.595-0.605-1.075-1.314-1.429-2.137c-0.354-0.822-0.525-1.691-0.525-2.617
		s0.183-1.795,0.525-2.617c0.354-0.834,0.834-1.543,1.429-2.146c0.604-0.619,1.325-1.098,2.138-1.453
		c0.833-0.342,1.702-0.525,2.628-0.525c0.925,0,1.793,0.184,2.616,0.525c0.823,0.355,1.544,0.834,2.148,1.453
		c0.605,0.604,1.086,1.313,1.438,2.146c0.354,0.822,0.538,1.691,0.526,2.617c0,0.926-0.172,1.795-0.526,2.617
		C257.569,74.703,257.089,75.412,256.483,76.018z M267.923,86.268c-0.275,0.652-0.664,1.211-1.143,1.691
		c-0.492,0.469-1.04,0.857-1.692,1.131c-0.662,0.275-1.348,0.424-2.079,0.424c-0.743,0-1.428-0.148-2.08-0.424
		c-0.65-0.271-1.211-0.662-1.69-1.131c-0.479-0.48-0.856-1.039-1.132-1.691c-0.284-0.65-0.41-1.348-0.41-2.08
		c0-0.73,0.126-1.416,0.41-2.066c0.274-0.662,0.651-1.223,1.132-1.703c0.479-0.492,1.04-0.869,1.69-1.143
		c0.652-0.285,1.337-0.424,2.08-0.424c0.731,0,1.417,0.139,2.079,0.424c0.641,0.273,1.201,0.65,1.692,1.143
		c0.479,0.48,0.867,1.041,1.143,1.703c0.285,0.65,0.411,1.336,0.411,2.066C268.334,84.92,268.208,85.615,267.923,86.268z
		 M272.516,73.881c-0.342,0.822-0.822,1.531-1.439,2.137c-0.605,0.605-1.325,1.074-2.148,1.43c-0.812,0.354-1.69,0.523-2.617,0.523
		c-0.925,0-1.806-0.172-2.615-0.523c-0.823-0.354-1.532-0.822-2.139-1.43c-0.605-0.605-1.075-1.314-1.428-2.137
		c-0.354-0.822-0.539-1.691-0.539-2.617s0.184-1.795,0.539-2.617c0.353-0.834,0.821-1.543,1.428-2.146
		c0.606-0.619,1.314-1.098,2.139-1.453c0.811-0.342,1.69-0.525,2.615-0.525c0.927,0,1.806,0.184,2.617,0.525
		c0.823,0.355,1.542,0.834,2.148,1.453c0.618,0.604,1.098,1.313,1.439,2.146c0.354,0.822,0.537,1.691,0.537,2.617
		S272.871,73.059,272.516,73.881z"/>
</g>
</svg>
